# ProBuilder 4.5.2
# https://unity3d.com/unity/features/worldbuilding/probuilder
# 8/3/2021 2:40:22 PM

mtllib ./LowPolySword1.mtl
o LowPolySword1

g Cube
v -0.9000157 1.972147 -0.9752666
v -0.9886178 1.972147 -0.9752666
v -0.9000156 1.972147 -0.9882334
v -0.9886168 1.972147 -0.9882334
v -0.9251421 -0.03751105 -0.9634891
v -0.9634897 -0.03751105 -0.9634891
v -0.9251421 -0.03751105 -0.9190285
v -0.9634897 -0.03751105 -0.9190285
v -1 0.5362364 -1
v -1 0.4413671 -1
v -1.046587 0.5362364 -1
v -1.046587 0.4413671 -1
v -1 0.5362364 -0.8825176
v -1 0.4413671 -0.8825176
v -1.046587 0.5362364 -0.8825176
v -1.046587 0.4413671 -0.8825176
v -0.8886309 0.4413671 -1
v -0.8886309 0.5362364 -1
v -0.8420444 0.4413671 -1
v -0.8420444 0.5362364 -1
v -0.8886309 0.4413671 -0.8825176
v -0.8886309 0.5362364 -0.8825176
v -0.8420444 0.4413671 -0.8825176
v -0.8420444 0.5362364 -0.8825176
v -0.9000156 1.783107 -0.8942906
v -0.9886168 1.783107 -0.8942906
v -0.9000156 1.783107 -0.9896778
v -0.9886168 1.783107 -0.9896778
v -0.9000156 0.6488947 -0.8825176
v -0.9886168 0.6488947 -0.8825176
v -0.9000156 0.6488947 -1
v -0.9886168 0.6488947 -1
v -0.8886309 0 -1
v -1 0 -1
v -0.8886309 -0.0009999983 -1
v -1 -0.0009999983 -1
v -0.8886309 0 -0.8825176
v -0.8886309 -0.0009999983 -0.8825176
v -1 0 -0.8825176
v -1 -0.0009999983 -0.8825176
v -0.8886309 0.4413671 -0.8205823
v -1 0.4413671 -0.8205823
v -0.8886309 0.5362364 -0.8205823
v -1 0.5362364 -0.8205823
v -1 0.4413671 -1.061935
v -0.8886309 0.4413671 -1.061935
v -1 0.5362364 -1.061935
v -0.8886309 0.5362364 -1.061935
v -1.046587 0.5362364 -1.061935
v -1.046587 0.4413671 -1.061935
v -0.8420444 0.4413671 -1.061935
v -0.8420444 0.5362364 -1.061935
v -0.8420444 0.5362364 -0.8205823
v -0.8420444 0.4413671 -0.8205823
v -1.046587 0.4413671 -0.8205823
v -1.046587 0.5362364 -0.8205823

vt 0.9000157 -0.9752666
vt 0.9886178 -0.9752666
vt 0.9000156 -0.9882334
vt 0.9886168 -0.9882334
vt -0.9251421 -0.9634891
vt -0.9634897 -0.9634891
vt -0.9251421 -0.9190285
vt -0.9634897 -0.9190285
vt -1 0.5362364
vt -1 0.4413671
vt -1.046587 0.5362364
vt -1.046587 0.4413671
vt 1 0.4413671
vt 1 0.5362364
vt 1.046587 0.4413671
vt 1.046587 0.5362364
vt -0.8886309 0.4413671
vt -0.8886309 0.5362364
vt -0.8420444 0.4413671
vt -0.8420444 0.5362364
vt 0.8886309 0.5362364
vt 0.8886309 0.4413671
vt 0.8420444 0.5362364
vt 0.8420444 0.4413671
vt -0.9000156 1.888897
vt -0.9886168 1.888897
vt -0.9000157 2.087256
vt -0.9886178 2.087256
vt 0.9752638 2.001234
vt 0.9882307 2.001234
vt 0.989675 1.8123
vt 0.8942878 1.8123
vt -0.8942906 1.748939
vt -0.9896778 1.748939
vt -0.9752666 1.937873
vt -0.9882334 1.937873
vt 0.9000156 1.966602
vt 0.9886168 1.966602
vt 0.9886168 1.777556
vt 0.9000156 1.777556
vt -0.8886309 0.6521919
vt -1 0.6521919
vt -0.9000156 0.7637859
vt -0.9886168 0.7637859
vt 0.8825148 0.6787269
vt 0.9999973 0.6787269
vt 0.8825148 0.5657501
vt 0.9999973 0.5657501
vt -0.8825176 0.5023886
vt -1 0.5023886
vt -1 0.6153653
vt -0.8825176 0.6153653
vt 0.9000156 0.6433043
vt 0.9886168 0.6433043
vt 1 0.5306478
vt 0.8886309 0.5306478
vt 0.8886309 -3.177978E-06
vt 1 -3.177978E-06
vt 0.8886309 -0.001003176
vt 1 -0.001003176
vt 0.8825176 -4.236074E-06
vt 0.8825176 -0.001004234
vt -1 -1.906787E-05
vt -0.8825176 -1.906787E-05
vt -1 -0.001019064
vt -0.8825176 -0.001019064
vt -0.8886309 2.804621E-06
vt -1 -0.0009971932
vt -0.8886309 -0.0009971932
vt 0.8886309 0.7063987
vt 0.9634897 0.6547643
vt 0.9251421 0.6547643
vt 1 0.7063987
vt -0.6290656 -0.8825176
vt -0.6807002 -0.9634891
vt -0.6807002 -0.9190285
vt -0.6290656 -1
vt -0.7063929 -1
vt -0.6547589 -0.9190285
vt -0.6547589 -0.9634891
vt -0.7063929 -0.8825176
vt -1 -0.6247404
vt -0.9251421 -0.6763747
vt -0.9634897 -0.6763747
vt -0.8886309 -0.6247404
vt 0.8825176 0.4413671
vt 0.8825176 0.5362364
vt -0.8825176 0.4413671
vt -0.8825176 0.5362364
vt -1 -1
vt -0.8886309 -1
vt -1 -1.061935
vt -0.8886309 -1.061935
vt -1.061935 0.5362364
vt -1.061935 0.4413671
vt 1.061935 0.4413671
vt 1.061935 0.5362364
vt 0.8886309 -1
vt 1 -1
vt 0.8886309 -1.061935
vt 1 -1.061935
vt -0.8886309 -0.8825176
vt -1 -0.8825176
vt -0.8886309 -0.8205823
vt -1 -0.8205823
vt 0.8205823 0.5362364
vt 0.8205823 0.4413671
vt -0.8205823 0.4413671
vt -0.8205823 0.5362364
vt 1 -0.8825176
vt 0.8886309 -0.8825176
vt 1 -0.8205823
vt 0.8886309 -0.8205823
vt 1.046587 -1.061935
vt 1.046587 -1
vt -1.046587 -1
vt -1.046587 -1.061935
vt -1.046587 -0.8825176
vt 1.046587 -0.8825176
vt -1.046587 -0.8205823
vt 1.046587 -0.8205823
vt -0.8420444 -1.061935
vt -0.8420444 -1
vt 0.8420444 -1
vt 0.8420444 -1.061935
vt -0.8420444 -0.8825176
vt 0.8420444 -0.8825176
vt 0.8420444 -0.8205823
vt -0.8420444 -0.8205823

vn 0 1 0
vn 0 -1 0
vn 0 0 1
vn 0 0 -1
vn 0 0.3937496 0.9192178
vn 1 2.801806E-07 4.596687E-06
vn -1 -5.675419E-06 0
vn 0 0.007640153 -0.9999709
vn 0 0.01037932 0.9999461
vn 0.9949327 0.1005433 0
vn -0.994934 0.1005303 0
vn 0 0.009100401 -0.9999586
vn 0 -0.7071058 -0.7071078
vn 0.7071049 -0.7071086 0
vn -0.7071136 -0.7071 0
vn 0 -0.7071058 0.7071078

usemtl Sword
f 3/3/1 2/2/1 1/1/1
f 3/3/1 4/4/1 2/2/1
f 7/7/2 6/6/2 5/5/2
f 7/7/2 8/8/2 6/6/2
f 11/11/3 10/10/3 9/9/3
f 11/11/3 12/12/3 10/10/3
f 15/11/3 14/10/3 13/9/3
f 15/11/3 16/12/3 14/10/3
f 12/15/4 9/14/4 10/13/4
f 12/15/4 11/16/4 9/14/4
f 16/15/4 13/14/4 14/13/4
f 16/15/4 15/16/4 13/14/4
f 19/19/3 18/18/3 17/17/3
f 19/19/3 20/20/3 18/18/3
f 20/23/4 17/22/4 18/21/4
f 20/23/4 19/24/4 17/22/4
f 23/19/3 22/18/3 21/17/3
f 23/19/3 24/20/3 22/18/3
f 24/23/4 21/22/4 22/21/4
f 24/23/4 23/24/4 21/22/4
f 1/27/5 26/26/5 25/25/5
f 1/27/5 2/28/5 26/26/5
f 27/31/6 3/30/6 1/29/6
f 25/32/6 27/31/6 1/29/6
f 2/35/7 28/34/7 26/33/7
f 2/35/7 4/36/7 28/34/7
f 28/39/8 4/38/8 3/37/8
f 27/40/8 28/39/8 3/37/8
f 29/43/3 13/42/3 22/41/3
f 29/43/3 30/44/3 13/42/3
f 26/26/9 30/44/9 29/43/9
f 26/26/9 29/43/9 25/25/9
f 25/32/6 29/45/6 27/31/6
f 29/45/6 31/46/6 27/31/6
f 29/45/10 22/47/10 31/46/10
f 22/47/10 18/48/10 31/46/10
f 32/51/11 9/50/11 13/49/11
f 32/51/11 13/49/11 30/52/11
f 28/34/7 32/51/7 30/52/7
f 28/34/7 30/52/7 26/33/7
f 9/55/4 32/54/4 31/53/4
f 18/56/4 9/55/4 31/53/4
f 27/40/12 31/53/12 28/39/12
f 31/53/12 32/54/12 28/39/12
f 35/59/4 34/58/4 33/57/4
f 35/59/4 36/60/4 34/58/4
f 38/62/6 33/58/6 37/61/6
f 38/62/6 35/60/6 33/58/6
f 36/65/7 39/64/7 34/63/7
f 36/65/7 40/66/7 39/64/7
f 40/68/3 37/67/3 39/63/3
f 40/68/3 38/69/3 37/67/3
f 5/72/13 6/71/13 35/70/13
f 6/71/13 36/73/13 35/70/13
f 7/76/14 5/75/14 38/74/14
f 5/75/14 35/77/14 38/74/14
f 6/80/15 8/79/15 36/78/15
f 8/79/15 40/81/15 36/78/15
f 8/84/16 7/83/16 40/82/16
f 7/83/16 38/85/16 40/82/16

usemtl Tire
f 43/18/3 42/10/3 41/17/3
f 43/18/3 44/9/3 42/10/3
f 20/14/6 23/86/6 19/13/6
f 20/14/6 24/87/6 23/86/6
f 15/89/7 12/10/7 16/88/7
f 15/89/7 11/9/7 12/10/7
f 47/14/4 46/22/4 45/13/4
f 47/14/4 48/21/4 46/22/4
f 45/92/2 17/91/2 10/90/2
f 45/92/2 46/93/2 17/91/2
f 49/94/7 12/10/7 11/9/7
f 49/94/7 50/95/7 12/10/7
f 51/96/6 20/14/6 19/13/6
f 51/96/6 52/97/6 20/14/6
f 48/100/1 9/99/1 18/98/1
f 48/100/1 47/101/1 9/99/1
f 41/104/2 14/103/2 21/102/2
f 41/104/2 42/105/2 14/103/2
f 53/106/6 23/86/6 24/87/6
f 53/106/6 54/107/6 23/86/6
f 55/108/7 15/89/7 16/88/7
f 55/108/7 56/109/7 15/89/7
f 44/112/1 22/111/1 13/110/1
f 44/112/1 43/113/1 22/111/1
f 49/114/1 9/99/1 47/101/1
f 49/114/1 11/115/1 9/99/1
f 12/116/2 45/92/2 10/90/2
f 12/116/2 50/117/2 45/92/2
f 50/15/4 47/14/4 45/13/4
f 50/15/4 49/16/4 47/14/4
f 16/118/2 10/90/2 14/103/2
f 16/118/2 12/116/2 10/90/2
f 11/115/1 13/110/1 9/99/1
f 11/115/1 15/119/1 13/110/1
f 55/120/2 14/103/2 42/105/2
f 55/120/2 16/118/2 14/103/2
f 15/119/1 44/112/1 13/110/1
f 15/119/1 56/121/1 44/112/1
f 56/11/3 42/10/3 44/9/3
f 56/11/3 55/12/3 42/10/3
f 51/122/2 17/91/2 46/93/2
f 51/122/2 19/123/2 17/91/2
f 20/124/1 48/100/1 18/98/1
f 20/124/1 52/125/1 48/100/1
f 52/23/4 46/22/4 48/21/4
f 52/23/4 51/24/4 46/22/4
f 19/123/2 21/102/2 17/91/2
f 19/123/2 23/126/2 21/102/2
f 24/127/1 18/98/1 22/111/1
f 24/127/1 20/124/1 18/98/1
f 53/128/1 22/111/1 43/113/1
f 53/128/1 24/127/1 22/111/1
f 23/126/2 41/104/2 21/102/2
f 23/126/2 54/129/2 41/104/2
f 54/19/3 43/18/3 41/17/3
f 54/19/3 53/20/3 43/18/3

usemtl Log
f 21/17/3 39/63/3 37/67/3
f 21/17/3 14/10/3 39/63/3
f 14/88/7 34/63/7 39/64/7
f 14/88/7 10/10/7 34/63/7
f 10/13/4 33/57/4 34/58/4
f 10/13/4 17/22/4 33/57/4
f 17/13/6 37/61/6 33/58/6
f 17/13/6 21/86/6 37/61/6
