# Blender v2.83.4 OBJ File: 'Shields.blend'
# www.blender.org
mtllib BasicTall.mtl
o TallBasic_Plane.004
v 0.424045 0.740699 -0.042514
v 0.414153 -0.794357 -0.042514
v 0.441106 -0.026446 -0.042514
v 0.333503 -0.802790 -0.005631
v 0.341469 0.747681 -0.005631
v 0.355207 -0.027320 -0.005631
v 0.425392 0.680098 -0.042514
v 0.342554 0.686459 -0.005631
v 0.416964 -0.714279 -0.042514
v 0.335767 -0.721924 -0.005631
v 0.335680 -0.802799 0.008820
v 0.416330 -0.794367 -0.028063
v 0.427569 0.680089 -0.028063
v 0.426221 0.740690 -0.028063
v 0.343645 0.747672 0.008820
v 0.419140 -0.714288 -0.028063
v 0.443282 -0.026455 -0.028063
v 0.357384 -0.027330 0.008820
v 0.344730 0.686450 0.008820
v 0.337943 -0.721933 0.008820
v 0.334843 -0.788510 0.035059
v 0.396789 -0.780233 -0.001824
v 0.405422 0.667073 -0.001824
v 0.404387 0.726558 -0.001824
v 0.340961 0.733411 0.035059
v 0.398948 -0.701629 -0.001824
v 0.417491 -0.026461 -0.001824
v 0.386393 -0.027556 0.035059
v 0.371715 0.708365 0.035059
v 0.363842 -0.743706 0.035059
v 0.327082 -0.779259 -0.026915
v 0.398444 -0.771081 -0.063798
v 0.408388 0.658763 -0.063798
v 0.407196 0.717531 -0.063798
v 0.334130 0.724302 -0.026915
v 0.400931 -0.693426 -0.063798
v 0.422292 -0.026403 -0.063798
v 0.382200 -0.027447 -0.026915
v 0.366864 0.701910 -0.026915
v 0.358638 -0.737210 -0.026915
v 0.430927 0.431252 -0.042514
v 0.347011 0.435065 -0.005631
v 0.433103 0.431243 -0.028063
v 0.349187 0.435056 0.008820
v 0.409672 0.422810 -0.001824
v 0.376885 0.449173 0.035059
v 0.413285 0.417447 -0.063798
v 0.372265 0.445029 -0.026915
v 0.432973 0.339264 -0.042514
v 0.348658 0.342135 -0.005631
v 0.435149 0.339255 -0.028063
v 0.350834 0.342126 0.008820
v 0.411244 0.332515 -0.001824
v 0.378796 0.353360 0.035059
v 0.415096 0.328242 -0.063798
v 0.374262 0.350071 -0.026915
v 0.439177 0.060293 -0.042514
v 0.353654 0.060307 -0.005631
v 0.441353 0.060284 -0.028063
v 0.355831 0.060298 0.008820
v 0.416009 0.058681 -0.001824
v 0.384591 0.062789 0.035059
v 0.420585 0.057711 -0.063798
v 0.380317 0.062092 -0.026915
v 0.430990 -0.314655 -0.042514
v 0.347062 -0.318366 -0.005631
v 0.433167 -0.314664 -0.028063
v 0.349238 -0.318375 0.008820
v 0.409721 -0.309363 -0.001824
v 0.376944 -0.327630 0.035059
v 0.413341 -0.305892 -0.063798
v 0.372327 -0.324845 -0.026915
v 0.428199 -0.394165 -0.042514
v 0.344814 -0.398659 -0.005631
v 0.430376 -0.394174 -0.028063
v 0.346991 -0.398668 0.008820
v 0.407578 -0.387409 -0.001824
v 0.374337 -0.410413 0.035059
v 0.410872 -0.382996 -0.063798
v 0.369604 -0.406890 -0.026915
v 0.254339 0.355017 0.038275
v 0.253461 0.424485 0.038275
v 0.280463 -0.016268 0.052183
v 0.279650 0.043098 0.052183
v 0.246233 -0.408558 0.054013
v 0.247533 -0.341834 0.054013
v -0.424045 0.740699 -0.042514
v -0.414153 -0.794357 -0.042514
v 0.000000 0.776552 0.047849
v 0.000000 -0.837662 0.047849
v -0.441106 -0.026446 -0.042514
v 0.000000 -0.030938 0.024726
v -0.333503 -0.802790 -0.005631
v -0.341469 0.747681 -0.005631
v -0.355207 -0.027320 -0.005631
v -0.425392 0.680098 -0.042514
v 0.000000 0.712764 0.024726
v -0.342554 0.686459 -0.005631
v -0.416964 -0.714279 -0.042514
v 0.000000 -0.753536 0.024726
v -0.335767 -0.721924 -0.005631
v -0.335680 -0.802799 0.008820
v -0.416330 -0.794367 -0.028063
v -0.427569 0.680089 -0.028063
v -0.426221 0.740690 -0.028063
v -0.343645 0.747672 0.008820
v 0.000000 0.776543 0.062299
v 0.000000 0.712755 0.062299
v -0.419140 -0.714288 -0.028063
v -0.443282 -0.026455 -0.028063
v 0.000000 -0.753545 0.062299
v 0.000000 -0.047611 0.063693
v -0.357384 -0.027330 0.008820
v 0.000000 -0.837671 0.062299
v -0.344730 0.686450 0.008820
v -0.337943 -0.721933 0.008820
v -0.334843 -0.788510 0.035059
v -0.396789 -0.780233 -0.001824
v -0.405422 0.667073 -0.001824
v -0.404387 0.726558 -0.001824
v -0.340961 0.733411 0.035059
v 0.000000 0.761751 0.088539
v 0.000000 0.735486 0.088539
v -0.398948 -0.701629 -0.001824
v -0.417491 -0.026461 -0.001824
v -0.386393 -0.027556 0.035059
v 0.000000 -0.822739 0.088539
v -0.371715 0.708365 0.035059
v -0.363842 -0.743706 0.035059
v 0.000000 -0.776299 0.088539
v -0.327082 -0.779259 -0.026915
v -0.398444 -0.771081 -0.063798
v -0.408388 0.658763 -0.063798
v -0.407196 0.717531 -0.063798
v -0.334130 0.724302 -0.026915
v 0.000000 0.752299 0.026564
v 0.000000 0.728788 0.026564
v -0.400931 -0.693426 -0.063798
v -0.422292 -0.026403 -0.063798
v -0.382200 -0.027447 -0.026915
v 0.000000 -0.813075 0.026564
v -0.366864 0.701910 -0.026915
v -0.358638 -0.737210 -0.026915
v 0.000000 -0.769512 0.026564
v -0.430927 0.431252 -0.042514
v 0.000000 0.450831 0.024726
v -0.347011 0.435065 -0.005631
v -0.433103 0.431243 -0.028063
v 0.000000 0.460600 0.055398
v -0.349187 0.435056 0.008820
v -0.409672 0.422810 -0.001824
v -0.376885 0.449173 0.035059
v -0.413285 0.417447 -0.063798
v -0.372265 0.445029 -0.026915
v -0.432973 0.339264 -0.042514
v 0.000000 0.354005 0.024726
v -0.348658 0.342135 -0.005631
v -0.435149 0.339255 -0.028063
v 0.000000 0.337497 0.063246
v -0.350834 0.342126 0.008820
v -0.411244 0.332515 -0.001824
v -0.378796 0.353360 0.035059
v -0.415096 0.328242 -0.063798
v -0.374262 0.350071 -0.026915
v -0.439177 0.060293 -0.042514
v 0.000000 0.060362 0.024726
v -0.353654 0.060307 -0.005631
v -0.441353 0.060284 -0.028063
v 0.000000 0.076978 0.060909
v -0.355831 0.060298 0.008820
v -0.416009 0.058681 -0.001824
v -0.384591 0.062789 0.035059
v -0.420585 0.057711 -0.063798
v -0.380317 0.062092 -0.026915
v -0.430990 -0.314655 -0.042514
v 0.000000 -0.333714 0.024726
v -0.347062 -0.318366 -0.005631
v -0.433167 -0.314664 -0.028063
v 0.000000 -0.321512 0.060757
v -0.349238 -0.318375 0.008820
v -0.409721 -0.309363 -0.001824
v -0.376944 -0.327630 0.035059
v -0.413341 -0.305892 -0.063798
v -0.372327 -0.324845 -0.026915
v -0.428199 -0.394165 -0.042514
v 0.000000 -0.417242 0.024726
v -0.344814 -0.398659 -0.005631
v -0.430376 -0.394174 -0.028063
v 0.000000 -0.431981 0.056961
v -0.346991 -0.398668 0.008820
v -0.407578 -0.387409 -0.001824
v -0.374337 -0.410413 0.035059
v -0.410872 -0.382996 -0.063798
v -0.369604 -0.406890 -0.026915
v 0.000000 0.355261 0.082066
v 0.000000 0.444192 0.082066
v -0.254339 0.355017 0.038275
v -0.253461 0.424485 0.038275
v 0.000000 -0.028766 0.097988
v -0.280463 -0.016268 0.052183
v 0.000000 0.052818 0.097988
v -0.279650 0.043098 0.052183
v 0.000000 -0.422848 0.097605
v 0.000000 -0.342471 0.097605
v -0.246233 -0.408558 0.054013
v -0.247533 -0.341834 0.054013
vt 0.947860 0.500000
vt 0.947860 0.902633
vt 0.947860 0.902633
vt 0.947860 0.500000
vt 0.443466 1.000000
vt 0.500000 1.000000
vt 0.500000 1.000000
vt 0.443466 1.000000
vt 0.739428 1.000000
vt 0.947860 1.000000
vt 0.947860 1.000000
vt 0.739428 1.000000
vt 0.687658 0.902633
vt 0.500000 0.902633
vt 0.500000 0.902633
vt 0.687658 0.902633
vt 1.000000 1.000000
vt 1.000000 1.000000
vt 0.000000 0.500000
vt 0.000000 0.902633
vt 0.000000 0.902633
vt 0.000000 0.500000
vt 0.947860 0.902633
vt 0.947860 0.500000
vt 0.947860 0.500000
vt 0.947860 0.902633
vt 0.201687 1.000000
vt 0.039498 1.000000
vt 0.039498 1.000000
vt 0.201687 1.000000
vt 0.500000 0.500000
vt 0.500000 0.902633
vt 0.500000 0.813943
vt 0.500000 0.500000
vt 0.687658 1.000000
vt 0.500000 1.000000
vt 0.500000 1.000000
vt 0.687658 1.000000
vt 0.739428 0.902633
vt 0.739428 0.902633
vt 1.000000 1.000000
vt 0.947860 1.000000
vt 0.947860 1.000000
vt 1.000000 1.000000
vt 0.000000 0.902633
vt 0.000000 0.500000
vt 0.000000 0.500000
vt 0.000000 0.902633
vt 0.201687 1.000000
vt 0.039498 1.000000
vt 1.000000 0.902633
vt 1.000000 0.902633
vt 1.000000 0.500000
vt 1.000000 0.500000
vt 0.687658 1.000000
vt 0.000000 1.000000
vt 0.000000 1.000000
vt 1.000000 0.902633
vt 0.443467 0.902633
vt 0.500000 0.902633
vt 0.443466 1.000000
vt 1.000000 0.500000
vt 0.039498 0.500000
vt 0.039498 0.902633
vt 0.000000 1.000000
vt 0.739428 1.000000
vt 0.443467 0.902633
vt 0.039498 0.500000
vt 0.039498 0.902633
vt 1.000000 0.902633
vt 0.443467 0.902633
vt 1.000000 0.500000
vt 0.039498 0.902633
vt 0.039498 0.500000
vt 0.000000 1.000000
vt 0.039498 1.000000
vt 0.739428 0.902633
vt 0.201687 0.902633
vt 0.039498 0.902633
vt 0.201687 0.902633
vt 0.039498 0.500000
vt 0.261642 0.902633
vt 0.261642 0.902633
vt 0.201687 1.000000
vt 0.201687 0.902633
vt 0.201687 0.902633
vt 0.261642 1.000000
vt 0.261642 1.000000
vt 0.261642 1.000000
vt 0.443466 1.000000
vt 0.443466 0.902633
vt 0.261642 1.000000
vt 0.261642 0.902633
vt 0.261642 0.902633
vt 0.201687 0.790660
vt 0.261642 0.790660
vt 0.687658 1.000000
vt 0.687658 0.902633
vt 0.739428 1.000000
vt 0.687658 0.902633
vt 0.739428 0.902633
vt 0.687658 0.783466
vt 0.739428 0.783466
vt 0.201687 0.500000
vt 0.261642 0.500000
vt 0.201687 0.500000
vt 0.261642 0.500000
vt 0.443466 0.500000
vt 0.443467 0.813943
vt 0.443466 0.500000
vt 0.687658 0.500000
vt 0.739428 0.500000
vt 0.739428 0.500000
vt 0.687658 0.500000
vt 0.947860 0.902633
vt 0.947860 0.902633
vt 0.443466 1.000000
vt 0.443466 1.000000
vt 0.500000 1.000000
vt 0.500000 1.000000
vt 0.739428 1.000000
vt 0.739428 1.000000
vt 0.947860 1.000000
vt 0.947860 1.000000
vt 0.687658 0.902633
vt 0.687658 0.902633
vt 0.500000 0.902633
vt 0.500000 0.902633
vt 1.000000 1.000000
vt 1.000000 1.000000
vt 0.000000 0.902633
vt 0.000000 0.902633
vt 0.947860 0.902633
vt 0.947860 0.902633
vt 0.201687 1.000000
vt 0.201687 1.000000
vt 0.039498 1.000000
vt 0.039498 1.000000
vt 0.500000 0.813943
vt 0.500000 0.902633
vt 0.687658 1.000000
vt 0.687658 1.000000
vt 0.500000 1.000000
vt 0.500000 1.000000
vt 0.739428 0.902633
vt 0.739428 0.902633
vt 1.000000 1.000000
vt 1.000000 1.000000
vt 0.947860 1.000000
vt 0.947860 1.000000
vt 0.000000 0.902633
vt 0.000000 0.902633
vt 0.201687 1.000000
vt 0.039498 1.000000
vt 1.000000 0.902633
vt 1.000000 0.902633
vt 0.687658 1.000000
vt 0.000000 1.000000
vt 0.000000 1.000000
vt 1.000000 0.902633
vt 0.443467 0.902633
vt 0.443466 1.000000
vt 0.500000 0.902633
vt 0.039498 0.902633
vt 0.000000 1.000000
vt 0.739428 1.000000
vt 0.443467 0.902633
vt 0.039498 0.902633
vt 1.000000 0.902633
vt 0.443467 0.902633
vt 0.039498 0.902633
vt 0.039498 1.000000
vt 0.000000 1.000000
vt 0.739428 0.902633
vt 0.201687 0.902633
vt 0.201687 0.902633
vt 0.039498 0.902633
vt 0.261642 0.902633
vt 0.261642 0.902633
vt 0.201687 1.000000
vt 0.201687 0.902633
vt 0.201687 0.902633
vt 0.261642 1.000000
vt 0.261642 1.000000
vt 0.261642 1.000000
vt 0.443466 1.000000
vt 0.443466 0.902633
vt 0.261642 1.000000
vt 0.261642 0.902633
vt 0.261642 0.902633
vt 0.261642 0.790660
vt 0.201687 0.790660
vt 0.687658 1.000000
vt 0.687658 0.902633
vt 0.739428 1.000000
vt 0.687658 0.902633
vt 0.739428 0.902633
vt 0.739428 0.783466
vt 0.687658 0.783466
vt 0.443467 0.813943
vt 0.443466 0.500000
vt 0.500000 0.500000
vt 0.739428 0.500000
vt 0.201687 0.500000
vt 0.261642 0.500000
vt 0.687658 0.500000
vn -0.1475 0.4424 -0.8846
vn 0.7506 0.0160 -0.6605
vn 0.7772 -0.0261 -0.6287
vn -0.6300 0.0193 -0.7764
vn 0.7880 -0.0265 -0.6151
vn -0.0607 0.6703 -0.7396
vn 0.0270 0.7688 0.6389
vn 0.7519 0.0149 0.6591
vn 0.1173 -0.8822 0.4560
vn 0.7279 -0.0228 0.6853
vn -0.6952 0.0207 0.7185
vn 0.7909 -0.0248 0.6115
vn 0.1478 0.8621 0.4848
vn 0.9886 0.0220 -0.1489
vn 0.0831 0.9965 -0.0056
vn 0.9882 -0.0347 -0.1489
vn 0.0971 -0.9952 -0.0152
vn 0.1023 -0.9947 -0.0083
vn 0.0792 0.9968 -0.0113
vn 0.6494 -0.1640 0.7425
vn 0.7631 0.0143 0.6461
vn 0.1558 -0.0495 0.9866
vn 0.1548 0.0928 0.9836
vn 0.6609 0.2486 0.7081
vn 0.7429 -0.0219 0.6690
vn -0.6721 -0.0127 0.7404
vn 0.1655 -0.8605 0.4818
vn 0.3720 -0.7481 0.5496
vn 0.0375 -0.7706 0.6363
vn 0.3573 0.7414 0.5680
vn 0.7625 0.0151 0.6468
vn -0.5895 0.1676 -0.7902
vn -0.6765 -0.0140 -0.7363
vn -0.1594 0.0587 -0.9855
vn -0.1585 -0.1130 -0.9809
vn -0.5988 -0.2503 -0.7608
vn -0.6716 0.0219 -0.7406
vn -0.6478 -0.0126 -0.7617
vn -0.0514 -0.6656 -0.7446
vn -0.2416 -0.7129 -0.6583
vn -0.1379 -0.4413 -0.8867
vn -0.2440 0.7205 -0.6492
vn 0.7741 0.0165 -0.6328
vn -0.6392 -0.0124 -0.7689
vn -0.6729 -0.0139 -0.7396
vn -0.6879 -0.0130 0.7257
vn 0.7490 0.0140 0.6624
vn 0.7404 0.0147 0.6721
vn 0.7688 0.0164 -0.6392
vn 0.7280 0.0144 0.6855
vn -0.6301 -0.0122 -0.7764
vn -0.6740 -0.0139 -0.7386
vn -0.6828 -0.0129 0.7304
vn 0.7535 0.0141 0.6573
vn 0.2931 0.0046 0.9561
vn 0.7630 0.0162 -0.6461
vn -0.6212 -0.0120 -0.7835
vn 0.7159 0.0142 0.6980
vn -0.6753 -0.0140 -0.7375
vn -0.6774 -0.0128 0.7355
vn 0.7583 0.0142 0.6517
vn 0.7568 0.0161 -0.6535
vn -0.6756 0.0220 -0.7369
vn 0.7587 -0.0224 0.6511
vn -0.6772 0.0202 0.7355
vn 0.7474 -0.0234 0.6640
vn -0.6443 0.0197 -0.7645
vn 0.7566 -0.0254 -0.6534
vn -0.6604 0.0202 -0.7506
vn 0.7690 -0.0241 0.6388
vn -0.6737 0.0220 -0.7387
vn 0.7511 -0.0222 0.6598
vn 0.4090 -0.0099 0.9125
vn -0.6858 0.0204 0.7275
vn 0.7664 -0.0257 -0.6418
vn 0.1700 0.0009 0.9854
vn 0.1513 0.7651 0.6259
vn 0.1169 -0.7159 0.6883
vn 0.1614 0.0009 0.9869
vn 0.4926 0.0079 0.8702
vn 0.1178 0.8334 0.5400
vn 0.1739 -0.0015 0.9848
vn 0.0954 -0.9901 0.1033
vn 0.0831 0.8295 0.5522
vn 0.1475 0.4424 -0.8846
vn -0.7506 0.0160 -0.6605
vn -0.7772 -0.0261 -0.6287
vn 0.6300 0.0193 -0.7764
vn -0.7880 -0.0265 -0.6151
vn 0.0607 0.6703 -0.7396
vn -0.0270 0.7688 0.6389
vn -0.7519 0.0149 0.6591
vn -0.1173 -0.8822 0.4560
vn -0.7279 -0.0228 0.6853
vn 0.6952 0.0207 0.7185
vn -0.7909 -0.0248 0.6115
vn -0.1478 0.8621 0.4848
vn -0.9886 0.0220 -0.1489
vn -0.0831 0.9965 -0.0056
vn -0.9882 -0.0347 -0.1489
vn -0.0971 -0.9952 -0.0152
vn -0.1023 -0.9947 -0.0083
vn -0.0792 0.9968 -0.0113
vn -0.6494 -0.1640 0.7425
vn -0.7631 0.0143 0.6461
vn -0.1558 -0.0495 0.9866
vn -0.1548 0.0928 0.9836
vn -0.6609 0.2486 0.7081
vn -0.7429 -0.0219 0.6690
vn 0.6721 -0.0127 0.7404
vn -0.1655 -0.8605 0.4818
vn -0.3720 -0.7481 0.5496
vn -0.0375 -0.7706 0.6363
vn -0.3573 0.7414 0.5680
vn -0.7625 0.0151 0.6468
vn 0.5895 0.1676 -0.7902
vn 0.6765 -0.0140 -0.7363
vn 0.1594 0.0587 -0.9855
vn 0.1585 -0.1130 -0.9809
vn 0.5988 -0.2503 -0.7608
vn 0.6716 0.0219 -0.7406
vn 0.6478 -0.0126 -0.7617
vn 0.0514 -0.6656 -0.7446
vn 0.2416 -0.7129 -0.6583
vn 0.1379 -0.4413 -0.8867
vn 0.2440 0.7205 -0.6492
vn -0.7741 0.0165 -0.6328
vn 0.6392 -0.0124 -0.7689
vn 0.6729 -0.0139 -0.7396
vn 0.6879 -0.0130 0.7257
vn -0.7491 0.0140 0.6624
vn -0.7404 0.0147 0.6721
vn -0.7688 0.0164 -0.6392
vn -0.7280 0.0144 0.6855
vn 0.6301 -0.0122 -0.7764
vn 0.6740 -0.0139 -0.7386
vn 0.6828 -0.0129 0.7304
vn -0.7535 0.0141 0.6573
vn -0.2931 0.0046 0.9561
vn -0.7630 0.0162 -0.6461
vn 0.6212 -0.0120 -0.7835
vn -0.7159 0.0142 0.6980
vn 0.6753 -0.0140 -0.7375
vn 0.6774 -0.0128 0.7355
vn -0.7583 0.0142 0.6517
vn -0.7568 0.0161 -0.6535
vn 0.6756 0.0220 -0.7369
vn -0.7587 -0.0224 0.6511
vn 0.6772 0.0202 0.7355
vn -0.7474 -0.0234 0.6640
vn 0.6443 0.0197 -0.7645
vn -0.7566 -0.0254 -0.6534
vn 0.6604 0.0202 -0.7506
vn -0.7690 -0.0241 0.6388
vn 0.6737 0.0220 -0.7387
vn -0.7511 -0.0222 0.6598
vn -0.4090 -0.0099 0.9125
vn 0.6858 0.0204 0.7275
vn -0.7664 -0.0257 -0.6418
vn -0.1700 0.0009 0.9854
vn -0.1513 0.7651 0.6259
vn -0.1169 -0.7159 0.6883
vn -0.1614 0.0009 0.9869
vn -0.4926 0.0079 0.8702
vn -0.1178 0.8334 0.5400
vn -0.1739 -0.0015 0.9848
vn -0.0954 -0.9901 0.1033
vn -0.0831 0.8295 0.5522
vn -0.0853 -0.0007 -0.9964
vn -0.0889 0.0012 -0.9960
vn 0.1462 0.0061 0.9892
vn 0.1418 -0.0123 0.9898
vn -0.0878 -0.0008 -0.9961
vn -0.0870 -0.0008 -0.9962
vn 0.1490 -0.0029 0.9888
vn -0.0861 -0.0007 -0.9963
vn 0.1497 -0.0073 0.9887
vn -0.0862 0.0012 -0.9963
vn -0.0875 0.0012 -0.9962
vn 0.0853 -0.0007 -0.9964
vn 0.0889 0.0012 -0.9960
vn -0.1462 0.0061 0.9892
vn -0.1418 -0.0123 0.9898
vn 0.0878 -0.0008 -0.9961
vn 0.0870 -0.0008 -0.9962
vn -0.1490 -0.0029 0.9888
vn 0.0861 -0.0007 -0.9963
vn -0.1497 -0.0073 0.9887
vn 0.0862 0.0012 -0.9963
vn 0.0875 0.0012 -0.9962
usemtl Metal
s off
f 100/1/1 10/2/1 40/3/1 144/4/1
f 57/5/2 3/6/2 37/7/2 63/8/2
f 73/9/3 9/10/3 36/11/3 79/12/3
f 66/13/4 6/14/4 38/15/4 72/16/4
f 9/10/5 2/17/5 32/18/5 36/11/5
f 89/19/6 5/20/6 35/21/6 136/22/6
f 20/23/7 111/24/7 130/25/7 30/26/7
f 43/27/8 13/28/8 23/29/8 45/30/8
f 112/31/9 18/32/9 83/33/9 199/34/9
f 67/35/10 17/36/10 27/37/10 69/38/10
f 76/39/11 20/23/11 30/26/11 78/40/11
f 12/41/12 16/42/12 26/43/12 22/44/12
f 15/45/13 107/46/13 122/47/13 25/48/13
f 41/49/14 7/50/14 13/28/14 43/27/14
f 5/20/15 89/19/15 107/46/15 15/45/15
f 2/17/16 9/10/16 16/42/16 12/41/16
f 4/51/17 2/17/17 12/41/17 11/52/17
f 90/53/18 4/51/18 11/52/18 114/54/18
f 65/55/16 3/6/16 17/36/16 67/35/16
f 7/50/14 1/56/14 14/57/14 13/28/14
f 1/56/19 5/20/19 15/45/19 14/57/19
f 30/26/20 21/58/20 22/44/20 26/43/20
f 62/59/21 28/60/21 27/37/21 61/61/21
f 130/25/22 127/62/22 21/58/22 30/26/22
f 122/47/23 123/63/23 29/64/23 25/48/23
f 25/48/24 29/64/24 23/29/24 24/65/24
f 78/40/25 30/26/25 26/43/25 77/66/25
f 60/67/26 18/32/26 28/60/26 62/59/26
f 114/54/27 11/52/27 21/58/27 127/62/27
f 11/52/28 12/41/28 22/44/28 21/58/28
f 108/68/29 19/69/29 29/64/29 123/63/29
f 14/57/30 15/45/30 25/48/30 24/65/30
f 13/28/31 14/57/31 24/65/31 23/29/31
f 40/3/32 36/11/32 32/18/32 31/70/32
f 64/71/33 63/8/33 37/7/33 38/15/33
f 144/4/34 40/3/34 31/70/34 141/72/34
f 136/22/35 35/21/35 39/73/35 137/74/35
f 35/21/36 34/75/36 33/76/36 39/73/36
f 80/77/37 79/12/37 36/11/37 40/3/37
f 42/78/38 8/79/38 39/73/38 48/80/38
f 4/51/39 90/53/39 141/72/39 31/70/39
f 2/17/40 4/51/40 31/70/40 32/18/40
f 8/79/41 97/81/41 137/74/41 39/73/41
f 5/20/42 1/56/42 34/75/42 35/21/42
f 1/56/43 7/50/43 33/76/43 34/75/43
f 50/82/44 42/78/44 48/80/44 56/83/44
f 39/73/45 33/76/45 47/84/45 48/80/45
f 19/69/46 44/85/46 46/86/46 29/64/46
f 29/64/47 46/86/47 45/30/47 23/29/47
f 49/87/14 41/49/14 43/27/14 51/88/14
f 51/88/48 43/27/48 45/30/48 53/89/48
f 7/50/49 41/49/49 47/84/49 33/76/49
f 59/90/50 51/88/50 53/89/50 61/61/50
f 57/5/14 49/87/14 51/88/14 59/90/14
f 58/91/51 50/82/51 56/83/51 64/71/51
f 48/80/52 47/84/52 55/92/52 56/83/52
f 44/85/53 52/93/53 54/94/53 46/86/53
f 46/86/54 54/94/54 53/89/54 45/30/54
f 52/93/55 44/85/55 82/95/55 81/96/55
f 41/49/56 49/87/56 55/92/56 47/84/56
f 6/14/57 58/91/57 64/71/57 38/15/57
f 3/6/14 57/5/14 59/90/14 17/36/14
f 17/36/58 59/90/58 61/61/58 27/37/58
f 56/83/59 55/92/59 63/8/59 64/71/59
f 52/93/60 60/67/60 62/59/60 54/94/60
f 54/94/61 62/59/61 61/61/61 53/89/61
f 49/87/62 57/5/62 63/8/62 55/92/62
f 38/15/63 37/7/63 71/97/63 72/16/63
f 28/60/64 70/98/64 69/38/64 27/37/64
f 73/9/16 65/55/16 67/35/16 75/99/16
f 18/32/65 68/100/65 70/98/65 28/60/65
f 75/99/66 67/35/66 69/38/66 77/66/66
f 74/101/67 66/13/67 72/16/67 80/77/67
f 3/6/68 65/55/68 71/97/68 37/7/68
f 10/2/69 74/101/69 80/77/69 40/3/69
f 16/42/70 75/99/70 77/66/70 26/43/70
f 9/10/16 73/9/16 75/99/16 16/42/16
f 72/16/71 71/97/71 79/12/71 80/77/71
f 70/98/72 78/40/72 77/66/72 69/38/72
f 76/39/73 68/100/73 86/102/73 85/103/73
f 68/100/74 76/39/74 78/40/74 70/98/74
f 65/55/75 73/9/75 79/12/75 71/97/75
f 196/104/76 195/105/76 81/96/76 82/95/76
f 44/85/77 149/106/77 196/104/77 82/95/77
f 159/107/78 52/93/78 81/96/78 195/105/78
f 201/108/79 199/34/79 83/33/79 84/109/79
f 18/32/80 60/67/80 84/109/80 83/33/80
f 60/67/81 169/110/81 201/108/81 84/109/81
f 204/111/82 203/112/82 85/103/82 86/102/82
f 189/113/83 76/39/83 85/103/83 203/112/83
f 68/100/84 179/114/84 204/111/84 86/102/84
f 100/1/85 144/4/85 143/115/85 101/116/85
f 165/117/86 173/118/86 139/119/86 91/120/86
f 185/121/87 193/122/87 138/123/87 99/124/87
f 177/125/88 184/126/88 140/127/88 95/128/88
f 99/124/89 138/123/89 132/129/89 88/130/89
f 89/19/90 136/22/90 135/131/90 94/132/90
f 116/133/91 129/134/91 130/25/91 111/24/91
f 148/135/92 151/136/92 119/137/92 104/138/92
f 112/31/93 199/34/93 200/139/93 113/140/93
f 178/141/94 181/142/94 125/143/94 110/144/94
f 190/145/95 192/146/95 129/134/95 116/133/95
f 103/147/96 118/148/96 124/149/96 109/150/96
f 106/151/97 121/152/97 122/47/97 107/46/97
f 145/153/98 148/135/98 104/138/98 96/154/98
f 94/132/99 106/151/99 107/46/99 89/19/99
f 88/130/100 103/147/100 109/150/100 99/124/100
f 93/155/101 102/156/101 103/147/101 88/130/101
f 90/53/102 114/54/102 102/156/102 93/155/102
f 175/157/100 178/141/100 110/144/100 91/120/100
f 96/154/98 104/138/98 105/158/98 87/159/98
f 87/159/103 105/158/103 106/151/103 94/132/103
f 129/134/104 124/149/104 118/148/104 117/160/104
f 172/161/105 171/162/105 125/143/105 126/163/105
f 130/25/106 129/134/106 117/160/106 127/62/106
f 122/47/107 121/152/107 128/164/107 123/63/107
f 121/152/108 120/165/108 119/137/108 128/164/108
f 192/146/109 191/166/109 124/149/109 129/134/109
f 170/167/110 172/161/110 126/163/110 113/140/110
f 114/54/111 127/62/111 117/160/111 102/156/111
f 102/156/112 117/160/112 118/148/112 103/147/112
f 108/68/113 123/63/113 128/164/113 115/168/113
f 105/158/114 120/165/114 121/152/114 106/151/114
f 104/138/115 119/137/115 120/165/115 105/158/115
f 143/115/116 131/169/116 132/129/116 138/123/116
f 174/170/117 140/127/117 139/119/117 173/118/117
f 144/4/118 141/72/118 131/169/118 143/115/118
f 136/22/119 137/74/119 142/171/119 135/131/119
f 135/131/120 142/171/120 133/172/120 134/173/120
f 194/174/121 143/115/121 138/123/121 193/122/121
f 147/175/122 154/176/122 142/171/122 98/177/122
f 93/155/123 131/169/123 141/72/123 90/53/123
f 88/130/124 132/129/124 131/169/124 93/155/124
f 98/177/125 142/171/125 137/74/125 97/81/125
f 94/132/126 135/131/126 134/173/126 87/159/126
f 87/159/127 134/173/127 133/172/127 96/154/127
f 157/178/128 164/179/128 154/176/128 147/175/128
f 142/171/129 154/176/129 153/180/129 133/172/129
f 115/168/130 128/164/130 152/181/130 150/182/130
f 128/164/131 119/137/131 151/136/131 152/181/131
f 155/183/98 158/184/98 148/135/98 145/153/98
f 158/184/132 161/185/132 151/136/132 148/135/132
f 96/154/133 133/172/133 153/180/133 145/153/133
f 168/186/134 171/162/134 161/185/134 158/184/134
f 165/117/98 168/186/98 158/184/98 155/183/98
f 167/187/135 174/170/135 164/179/135 157/178/135
f 154/176/136 164/179/136 163/188/136 153/180/136
f 150/182/137 152/181/137 162/189/137 160/190/137
f 152/181/138 151/136/138 161/185/138 162/189/138
f 160/190/139 197/191/139 198/192/139 150/182/139
f 145/153/140 153/180/140 163/188/140 155/183/140
f 95/128/141 140/127/141 174/170/141 167/187/141
f 91/120/98 110/144/98 168/186/98 165/117/98
f 110/144/142 125/143/142 171/162/142 168/186/142
f 164/179/143 174/170/143 173/118/143 163/188/143
f 160/190/144 162/189/144 172/161/144 170/167/144
f 162/189/145 161/185/145 171/162/145 172/161/145
f 155/183/146 163/188/146 173/118/146 165/117/146
f 140/127/147 184/126/147 183/193/147 139/119/147
f 126/163/148 125/143/148 181/142/148 182/194/148
f 185/121/100 188/195/100 178/141/100 175/157/100
f 113/140/149 126/163/149 182/194/149 180/196/149
f 188/195/150 191/166/150 181/142/150 178/141/150
f 187/197/151 194/174/151 184/126/151 177/125/151
f 91/120/152 139/119/152 183/193/152 175/157/152
f 101/116/153 143/115/153 194/174/153 187/197/153
f 109/150/154 124/149/154 191/166/154 188/195/154
f 99/124/100 109/150/100 188/195/100 185/121/100
f 184/126/155 194/174/155 193/122/155 183/193/155
f 182/194/156 181/142/156 191/166/156 192/146/156
f 190/145/157 205/198/157 206/199/157 180/196/157
f 180/196/158 182/194/158 192/146/158 190/145/158
f 175/157/159 183/193/159 193/122/159 185/121/159
f 196/104/160 198/192/160 197/191/160 195/105/160
f 150/182/161 198/192/161 196/104/161 149/106/161
f 159/107/162 195/105/162 197/191/162 160/190/162
f 201/108/163 202/200/163 200/139/163 199/34/163
f 113/140/164 200/139/164 202/200/164 170/167/164
f 170/167/165 202/200/165 201/108/165 169/110/165
f 204/111/166 206/199/166 205/198/166 203/112/166
f 189/113/167 203/112/167 205/198/167 190/145/167
f 180/196/168 206/199/168 204/111/168 179/114/168
usemtl Wood
f 166/201/169 58/91/169 6/14/169 92/202/169
f 186/203/170 74/101/170 10/2/170 100/1/170
f 189/113/171 111/24/171 20/23/171 76/39/171
f 108/68/172 149/106/172 44/85/172 19/69/172
f 97/81/173 8/79/173 42/78/173 146/204/173
f 146/204/174 42/78/174 50/82/174 156/205/174
f 159/107/175 169/110/175 60/67/175 52/93/175
f 156/205/176 50/82/176 58/91/176 166/201/176
f 112/31/177 179/114/177 68/100/177 18/32/177
f 92/202/178 6/14/178 66/13/178 176/206/178
f 176/206/179 66/13/179 74/101/179 186/203/179
f 166/201/180 92/202/180 95/128/180 167/187/180
f 186/203/181 100/1/181 101/116/181 187/197/181
f 189/113/182 190/145/182 116/133/182 111/24/182
f 108/68/183 115/168/183 150/182/183 149/106/183
f 97/81/184 146/204/184 147/175/184 98/177/184
f 146/204/185 156/205/185 157/178/185 147/175/185
f 159/107/186 160/190/186 170/167/186 169/110/186
f 156/205/187 166/201/187 167/187/187 157/178/187
f 112/31/188 113/140/188 180/196/188 179/114/188
f 92/202/189 176/206/189 177/125/189 95/128/189
f 176/206/190 186/203/190 187/197/190 177/125/190
