# Blender v2.83.4 OBJ File: 'Shields.blend'
# www.blender.org
mtllib Dark.mtl
o SpikesAsymmetrical_Plane.007
v 0.289631 -0.354609 -0.031075
v 0.349545 -0.191974 -0.017928
v 0.382847 -0.071514 -0.015045
v 0.473427 0.078658 -0.009756
v 0.007192 0.367128 -0.012493
v -0.107022 0.339176 -0.020604
v -0.203530 0.259566 -0.025859
v -0.267684 0.140409 -0.028685
v -0.289779 -0.000160 -0.029889
v -0.266499 -0.140744 -0.030195
v -0.201729 -0.259209 -0.029525
v -0.104110 -0.339585 -0.026418
v 0.010482 -0.367557 -0.019729
v 0.250049 0.069655 0.047704
v 0.125932 0.123062 0.024171
v 0.109144 -0.034008 0.022644
v 0.081258 -0.214256 0.015442
v 0.078281 0.262700 -0.008364
v 0.141296 -0.294992 0.003085
v 0.337934 -0.275218 -0.018943
v 0.247559 0.197577 0.018410
v 0.373856 0.218918 -0.019278
v 0.204434 0.323596 -0.004233
v 0.171910 -0.190082 0.031359
v 0.201190 -0.087229 0.048477
v 0.251749 -0.142855 0.023799
v 0.013108 -0.045329 -0.016776
v -0.090820 -0.018770 -0.052769
v -0.096127 0.152938 -0.045077
v 0.043177 0.132874 -0.011928
v -0.096609 -0.239110 -0.040237
v 0.006277 0.220630 -0.033207
v 0.040357 -0.299832 -0.008495
v 0.127439 -0.129420 0.023404
v -0.014015 -0.152501 -0.012728
v 0.175148 -0.139682 0.026211
v 0.057089 -0.120036 0.001014
v -0.016892 0.065246 -0.042428
v 0.213008 -0.344524 -0.008926
v 0.295652 -0.179306 0.010441
v 0.298995 -0.097682 0.028183
v 0.360998 0.057405 0.030752
v 0.014182 0.347381 0.013423
v -0.096209 0.327336 0.016752
v -0.169563 0.258450 0.026153
v -0.251124 0.135467 0.007299
v -0.279068 0.002207 0.006040
v -0.234152 -0.159318 0.009714
v -0.184348 -0.237361 0.000864
v -0.094413 -0.314496 0.003036
v 0.009653 -0.342029 0.014320
v 0.227856 0.055446 0.081617
v 0.092686 0.134816 0.085869
v 0.080335 -0.038575 0.097456
v 0.017770 -0.204045 0.069471
v 0.080820 0.270676 0.052146
v 0.110749 -0.287328 0.040094
v 0.255842 -0.267585 0.014681
v 0.229357 0.203310 0.041519
v 0.309129 0.210829 0.014968
v 0.166851 0.321240 0.028125
v 0.161413 -0.180304 0.068387
v 0.184536 -0.102539 0.079512
v 0.218348 -0.143364 0.056878
v 0.039472 -0.007540 0.100012
v -0.098203 -0.022029 0.094814
v -0.076600 0.153271 0.072950
v 0.043303 0.137297 0.091348
v -0.102235 -0.189191 0.065290
v 0.006381 0.220683 0.058127
v 0.043039 -0.302433 0.035837
v 0.095232 -0.127153 0.090701
v -0.027959 -0.132423 0.088747
v 0.176701 -0.141520 0.084147
v 0.038693 -0.101992 0.090219
v -0.019505 0.060958 0.099654
v 0.231151 0.167650 0.029737
v 0.204577 0.174704 0.060476
v 0.261530 0.168182 0.022514
v 0.212915 0.247307 0.000552
v 0.183765 0.243691 0.035382
v 0.197590 0.262180 0.010084
v 0.092089 0.292363 0.043105
v 0.123719 0.289022 0.009517
v 0.159912 0.290186 0.026583
v 0.122405 0.277474 0.019915
v 0.121052 0.279504 0.041853
v -0.189464 -0.128362 -0.052877
v -0.229258 0.031605 -0.051122
v -0.216705 0.114918 -0.060767
v -0.197403 0.178697 -0.048052
v -0.225235 -0.031033 0.042464
v -0.203061 0.085160 0.055550
v -0.180958 0.162954 0.050634
v 0.252996 -0.010519 0.020450
v 0.215950 -0.015898 0.064257
v -0.160244 -0.111332 0.064976
v -0.085669 0.251213 0.051960
v 0.034484 0.319014 -0.024098
v 0.076343 0.052311 -0.003497
v -0.119204 0.080656 0.076486
v 0.210525 0.088617 0.053664
v 0.179864 0.083627 0.083127
v 0.242712 0.089311 0.061245
v 0.287531 0.106909 0.054925
v 0.239151 0.084964 0.073697
v 0.181497 0.016824 0.051437
v 0.154096 0.008435 0.089537
v 0.363211 0.034069 0.005347
v 0.288474 0.020754 0.047504
v 0.168229 0.105840 0.038918
v 0.136275 0.109222 0.084498
v 0.241724 -0.025350 0.063043
v 0.147940 -0.034889 0.092966
v 0.359687 0.001834 0.040610
v 0.176270 -0.001437 0.092754
v 0.058495 0.102349 0.107657
v 0.063320 0.037286 0.109982
v 0.016655 0.067134 0.104873
v 0.131296 0.067930 0.113159
v 0.280407 -0.080376 0.020776
v 0.249373 -0.190907 0.009866
v 0.208552 -0.141066 0.025159
v 0.234450 -0.100421 0.057129
v 0.219952 -0.179868 0.043118
v 0.194863 -0.142324 0.072256
v 0.281035 -0.204553 -0.008965
v 0.203572 -0.203728 0.012529
v 0.251614 -0.193514 0.024287
v 0.193075 -0.193949 0.049556
v 0.147709 -0.179697 0.082029
v 0.086809 -0.209822 0.089050
v 0.141178 -0.153065 0.100197
v 0.225319 -0.166618 0.087531
v 0.056421 -0.251916 0.079255
v 0.170755 -0.295927 0.051468
v 0.072228 -0.288860 0.061214
v 0.039659 0.322722 0.046779
v 0.128997 0.303303 0.100220
v 0.035608 0.259395 0.070468
v -0.023165 0.369841 -0.001288
v 0.051527 0.386360 0.011203
v -0.049928 0.358457 0.012899
v -0.026754 0.240408 0.084707
v -0.024401 0.199430 0.085922
v 0.056421 0.229808 0.098986
v 0.136388 0.200616 0.058903
v 0.110366 0.230491 0.072420
v 0.114809 0.179621 0.085047
v 0.173487 0.208207 0.078965
v 0.090235 -0.027952 -0.009151
v 0.200123 -0.054526 -0.004125
v 0.134661 0.015891 -0.017943
v 0.149980 0.180451 0.000437
v 0.233344 0.147027 -0.010726
v 0.165418 0.097739 -0.012309
v 0.230696 -0.067448 0.019184
v 0.203338 -0.093809 0.028521
v 0.236603 -0.099444 0.016140
v 0.292648 -0.042889 -0.004019
v 0.152276 -0.135158 -0.016883
v 0.234678 -0.210666 -0.012524
v 0.117515 -0.174511 -0.019471
v -0.001985 -0.307853 -0.051564
v -0.163774 -0.261134 -0.036854
v -0.058230 -0.261357 -0.042787
vt 0.000000 0.000000
vt 0.000000 0.000000
vt 0.000000 0.000000
vt 0.000000 0.000000
vt 0.000000 0.000000
vt 0.000000 0.000000
vt 0.000000 0.000000
vt 0.000000 0.000000
vt 0.000000 0.000000
vt 0.000000 0.000000
vt 0.000000 0.000000
vt 0.000000 0.000000
vt 0.000000 0.000000
vt 0.000000 0.000000
vt 0.000000 0.000000
vt 0.000000 0.000000
vt 0.000000 0.000000
vt 0.000000 0.000000
vt 0.000000 0.000000
vt 0.000000 0.000000
vt 0.000000 0.000000
vt 0.000000 0.000000
vt 0.000000 0.000000
vt 0.000000 0.000000
vt 0.000000 0.000000
vt 0.000000 0.000000
vt 0.000000 0.000000
vt 0.000000 0.000000
vt 0.000000 0.000000
vt 0.000000 0.000000
vt 0.000000 0.000000
vt 0.000000 0.000000
vt 0.000000 0.000000
vt 0.000000 0.000000
vt 0.000000 0.000000
vt 0.000000 0.000000
vt 0.000000 0.000000
vt 0.000000 0.000000
vt 0.000000 0.000000
vt 0.000000 0.000000
vt 0.000000 0.000000
vt 0.000000 0.000000
vt 0.000000 0.000000
vt 0.000000 0.000000
vt 0.000000 0.000000
vt 0.000000 0.000000
vt 0.000000 0.000000
vt 0.000000 0.000000
vt 0.000000 0.000000
vt 0.000000 0.000000
vt 0.000000 0.000000
vt 0.000000 0.000000
vt 0.000000 0.000000
vt 0.000000 0.000000
vt 0.000000 0.000000
vt 0.000000 0.000000
vt 0.000000 0.000000
vt 0.000000 0.000000
vt 0.000000 0.000000
vt 0.000000 0.000000
vt 0.000000 0.000000
vt 0.000000 0.000000
vt 0.000000 0.000000
vt 0.000000 0.000000
vt 0.000000 0.000000
vt 0.000000 0.000000
vt 0.000000 0.000000
vt 0.000000 0.000000
vt 0.000000 0.000000
vt 0.000000 0.000000
vt 0.000000 0.000000
vt 0.000000 0.000000
vt 0.000000 0.000000
vt 0.000000 0.000000
vt 0.000000 0.000000
vt 0.000000 0.000000
vt 0.000000 0.000000
vt 0.000000 0.000000
vt 0.000000 0.000000
vt 0.000000 0.000000
vt 0.000000 0.000000
vt 0.000000 0.000000
vt 0.000000 0.000000
vt 0.000000 0.000000
vt 0.000000 0.000000
vt 0.000000 0.000000
vt 0.000000 0.000000
vt 0.000000 0.000000
vt 0.000000 0.000000
vt 0.000000 0.000000
vt 0.000000 0.000000
vt 0.000000 0.000000
vt 0.000000 0.000000
vt 0.000000 0.000000
vt 0.000000 0.000000
vt 0.000000 0.000000
vt 0.000000 0.000000
vt 0.000000 0.000000
vt 0.000000 0.000000
vt 0.000000 0.000000
vt 0.000000 0.000000
vt 0.000000 0.000000
vt 0.000000 0.000000
vt 0.000000 0.000000
vt 0.000000 0.000000
vt 0.000000 0.000000
vt 0.000000 0.000000
vt 0.000000 0.000000
vt 0.000000 0.000000
vt 0.000000 0.000000
vt 0.000000 0.000000
vt 0.000000 0.000000
vt 0.000000 0.000000
vt 0.000000 0.000000
vt 0.000000 0.000000
vt 0.000000 0.000000
vt 0.000000 0.000000
vt 0.000000 0.000000
vt 0.000000 0.000000
vt 0.000000 0.000000
vt 0.000000 0.000000
vt 0.000000 0.000000
vt 0.000000 0.000000
vt 0.000000 0.000000
vt 0.000000 0.000000
vt 0.000000 0.000000
vt 0.000000 0.000000
vt 0.000000 0.000000
vt 0.000000 0.000000
vt 0.000000 0.000000
vt 0.000000 0.000000
vt 0.000000 0.000000
vt 0.000000 0.000000
vt 0.000000 0.000000
vt 0.000000 0.000000
vt 0.000000 0.000000
vt 0.000000 0.000000
vt 0.000000 0.000000
vt 0.000000 0.000000
vt 0.000000 0.000000
vt 0.000000 0.000000
vt 0.000000 0.000000
vt 0.000000 0.000000
vt 0.000000 0.000000
vt 0.000000 0.000000
vt 0.000000 0.000000
vt 0.000000 0.000000
vt 0.000000 0.000000
vt 0.000000 0.000000
vt 0.000000 0.000000
vt 0.000000 0.000000
vt 0.000000 0.000000
vt 0.000000 0.000000
vt 0.000000 0.000000
vt 0.000000 0.000000
vt 0.000000 0.000000
vt 0.000000 0.000000
vt 0.000000 0.000000
vt 0.000000 0.000000
vt 0.000000 0.000000
vt 0.000000 0.000000
vt 0.000000 0.000000
vt 0.000000 0.000000
vt 0.000000 0.000000
vt 0.000000 0.000000
vt 0.000000 0.000000
vn 0.2940 -0.0706 -0.9532
vn -0.0510 0.1272 -0.9906
vn 0.1022 -0.0105 -0.9947
vn -0.1858 0.2821 -0.9412
vn 0.1005 0.2231 -0.9696
vn -0.1175 0.0643 -0.9910
vn -0.0919 -0.3927 -0.9151
vn 0.1035 0.2883 -0.9519
vn 0.1370 -0.0294 -0.9901
vn -0.0087 0.0088 -0.9999
vn 0.3905 -0.0804 -0.9171
vn -0.2577 -0.1463 -0.9551
vn 0.2792 0.1326 -0.9510
vn 0.0855 0.0472 -0.9952
vn 0.0926 0.0654 -0.9935
vn -0.0509 -0.1073 -0.9929
vn 0.2960 0.0210 -0.9550
vn -0.0895 0.1212 -0.9886
vn 0.2541 0.2010 -0.9461
vn 0.2215 -0.0108 -0.9751
vn 0.2090 -0.1466 -0.9669
vn 0.3630 -0.0726 -0.9290
vn 0.0277 0.1318 -0.9909
vn -0.3994 0.2940 -0.8683
vn -0.3687 0.2199 -0.9032
vn 0.2751 -0.1057 -0.9556
vn 0.1352 -0.0453 -0.9898
vn -0.0146 0.3237 -0.9460
vn 0.5065 -0.0621 -0.8600
vn -0.0548 0.2976 -0.9531
vn 0.3737 -0.0625 -0.9254
vn -0.1924 0.0485 -0.9801
vn 0.3479 0.0251 -0.9372
vn 0.2538 0.1262 -0.9590
vn 0.2918 -0.1403 -0.9461
vn 0.3596 -0.5378 0.7625
vn -0.1872 0.4811 -0.8565
vn 0.0966 -0.2325 -0.9678
vn -0.0888 -0.1809 0.9795
vn -0.2754 0.1770 0.9449
vn 0.0676 0.0617 0.9958
vn 0.4140 -0.3051 0.8576
vn 0.0488 -0.9987 0.0167
vn 0.1885 -0.1328 0.9731
vn 0.2080 0.3723 0.9045
vn -0.0184 0.4544 0.8906
vn 0.1874 0.5525 0.8122
vn -0.3778 -0.0465 0.9247
vn 0.1191 0.2490 0.9612
vn -0.4296 -0.3428 0.8354
vn -0.0747 -0.3397 0.9376
vn -0.1932 0.1605 0.9679
vn -0.6563 0.2914 0.6960
vn -0.3789 -0.0319 0.9249
vn -0.0704 -0.3009 0.9511
vn -0.3880 -0.4294 0.8155
vn -0.1216 0.2057 0.9710
vn 0.1051 0.0566 0.9929
vn -0.1001 0.3297 0.9388
vn -0.1356 0.3143 0.9396
vn 0.0815 0.4277 0.9003
vn -0.5724 0.2127 0.7919
vn -0.1782 0.2643 0.9479
vn -0.0145 -0.0821 0.9965
vn -0.1748 -0.4243 0.8885
vn 0.0838 -0.5472 0.8328
vn -0.2393 0.2706 0.9325
vn 0.0760 -0.2136 0.9740
vn -0.1786 -0.1669 0.9697
vn 0.4499 -0.0459 0.8919
vn -0.0322 -0.0925 0.9952
vn 0.1269 -0.0095 0.9919
vn -0.0351 -0.0250 0.9991
vn 0.1130 0.0582 0.9919
vn -0.0865 -0.7243 -0.6840
vn 0.6697 -0.7414 -0.0426
vn 0.2170 -0.9366 0.2753
vn 0.1640 -0.9864 0.0083
vn -0.7220 -0.4431 0.5314
vn -0.4916 -0.5632 0.6642
vn 0.2815 0.9176 0.2808
vn 0.1819 0.7185 0.6714
vn 0.5257 -0.6076 0.5954
vn -0.2399 -0.7425 0.6254
vn 0.1641 -0.8770 0.4516
vn -0.1323 0.8200 -0.5569
vn 0.2535 0.5978 0.7605
vn 0.2475 0.8422 0.4791
vn -0.5976 0.6948 0.4002
vn 0.4773 0.5191 0.7090
vn 0.1508 0.8955 0.4188
vn -0.7730 0.4228 0.4730
vn 0.0598 -0.8038 0.5919
vn 0.2452 -0.9628 0.1133
vn -0.9202 0.1650 0.3549
vn 0.1678 -0.9255 0.3395
vn 0.5618 0.4142 0.7161
vn -0.2102 0.5890 -0.7803
vn -0.8705 -0.1915 0.4533
vn 0.3634 -0.8386 0.4058
vn 0.6829 -0.7156 0.1471
vn 0.4691 0.8093 0.3535
vn 0.0864 -0.9521 0.2932
vn -0.2208 -0.2370 -0.9461
vn 0.7583 0.4290 0.4909
vn 0.5586 0.0642 0.8270
vn 0.0247 0.9910 -0.1316
vn 0.7075 0.3277 0.6261
vn 0.1223 0.6218 -0.7735
vn 0.2890 0.6908 0.6628
vn 0.4078 -0.8001 0.4400
vn 0.3022 -0.9473 0.1063
vn 0.0102 0.9959 -0.0895
vn 0.4760 -0.6178 -0.6259
vn 0.2026 0.3679 0.9075
vn 0.1039 0.0797 -0.9914
vn -0.4327 0.0330 -0.9010
vn -0.2880 -0.0539 -0.9561
vn 0.0134 -0.1023 -0.9947
vn 0.0969 0.2702 -0.9579
vn -0.2341 0.1242 0.9643
vn -0.6003 0.0748 0.7962
vn -0.6172 -0.1541 0.7716
vn -0.5799 0.2666 0.7698
vn 0.4302 -0.8181 0.3815
vn -0.5120 -0.1789 0.8401
vn -0.2255 -0.1642 0.9603
vn 0.2527 0.9007 -0.3534
vn -0.2420 0.3795 0.8930
vn -0.0323 0.3343 0.9419
vn 0.2122 -0.3785 -0.9010
vn 0.0102 0.2399 -0.9707
vn -0.0413 0.0631 -0.9972
vn 0.5396 -0.0495 -0.8405
vn -0.2112 0.1452 0.9666
vn -0.1994 0.1325 0.9709
vn 0.3783 0.8632 0.3342
vn -0.3282 0.9171 0.2263
vn -0.1133 0.5346 -0.8374
vn 0.2136 0.1761 0.9609
vn -0.0176 0.9789 0.2037
vn 0.4256 0.8951 0.1324
vn 0.4030 -0.6563 0.6379
vn 0.3267 -0.3078 0.8936
vn -0.2546 0.2888 -0.9229
vn 0.3666 -0.0467 -0.9292
vn 0.2812 -0.3437 0.8960
vn 0.2074 0.5711 0.7942
vn 0.0194 0.0762 0.9969
vn -0.1366 -0.1892 -0.9724
vn -0.0905 0.0289 0.9955
vn -0.1542 -0.1110 0.9818
vn 0.1582 0.4732 0.8666
vn -0.0607 0.0312 0.9977
vn 0.1925 -0.0637 -0.9792
vn 0.0680 -0.2510 0.9656
vn 0.1933 -0.7994 0.5689
vn 0.1677 0.8003 0.5757
vn 0.4456 -0.1722 0.8785
vn 0.3923 -0.4284 0.8140
vn -0.2499 0.0679 -0.9659
vn -0.1987 0.0246 -0.9797
vn 0.1147 -0.9329 0.3415
vn -0.3089 -0.9375 0.1600
vn 0.3771 -0.3229 0.8681
vn 0.4402 0.8931 0.0930
vn 0.1731 -0.5257 0.8329
vn 0.2062 -0.8547 -0.4765
vn -0.2437 0.0055 0.9698
vn 0.3190 -0.1907 -0.9284
vn 0.0598 -0.4173 0.9068
vn -0.5782 -0.4383 0.6881
vn 0.5072 0.8587 -0.0729
vn -0.4270 0.3406 0.8376
vn 0.3848 -0.8030 0.4552
vn 0.6426 0.4438 -0.6246
vn -0.2510 0.9290 0.2720
vn 0.0056 0.0796 0.9968
vn -0.4393 0.8621 0.2525
vn 0.5654 -0.5754 -0.5909
vn -0.1667 0.0196 0.9858
vn 0.5098 -0.8556 -0.0896
vn -0.4082 0.1113 0.9061
vn 0.2227 0.2670 0.9376
vn 0.1172 0.3644 0.9238
vn -0.0161 0.2396 0.9708
vn 0.5885 0.6976 -0.4087
vn -0.3608 0.1949 0.9121
vn -0.0022 -0.1945 -0.9809
vn 0.3932 0.4508 0.8014
vn -0.0373 -0.9855 -0.1655
vn -0.0770 0.1378 -0.9875
vn 0.0049 0.0279 -0.9996
vn -0.0352 0.3945 0.9182
vn -0.3541 0.0236 -0.9349
vn 0.1379 0.6251 0.7683
vn -0.7755 0.5700 -0.2715
vn 0.3039 -0.5011 -0.8103
vn 0.0624 0.0105 -0.9980
vn -0.1353 -0.5813 -0.8023
vn 0.1868 0.2232 0.9567
vn -0.0555 0.1200 -0.9912
vn 0.1863 0.0953 0.9779
vn -0.1669 -0.2537 -0.9528
usemtl Rock
s off
f 17/1/1 37/2/1 34/3/1
f 6/4/2 29/5/2 7/6/2
f 107/7/3 111/8/3 102/9/3 14/10/3
f 122/11/4 123/12/4 26/13/4 2/14/4
f 33/15/5 17/1/5 19/16/5
f 19/16/6 17/1/6 20/17/6
f 18/18/7 80/19/7 22/20/7 21/21/7
f 99/22/8 5/23/8 23/24/8
f 17/1/9 34/3/9 36/25/9 24/26/9
f 89/27/10 28/28/10 88/29/10
f 15/30/11 30/31/11 18/18/11
f 88/29/12 11/32/12 10/33/12
f 31/34/13 17/1/13 33/15/13
f 28/28/14 29/5/14 38/35/14
f 6/4/15 99/22/15 18/18/15 32/36/15
f 90/37/16 28/28/16 89/27/16
f 17/1/17 31/34/17 35/38/17
f 31/34/18 166/39/18 165/40/18 11/32/18
f 38/35/19 29/5/19 30/31/19
f 100/41/20 27/42/20 30/31/20
f 30/31/21 29/5/21 32/36/21
f 18/18/22 30/31/22 32/36/22
f 29/5/23 6/4/23 32/36/23
f 91/43/24 90/37/24 8/44/24
f 7/6/25 91/43/25 8/44/25
f 27/42/26 37/2/26 35/38/26 28/28/26
f 12/45/27 31/34/27 33/15/27 13/46/27
f 13/46/28 33/15/28 19/16/28 1/47/28
f 27/42/29 38/35/29 30/31/29
f 37/2/30 161/48/30 163/49/30 35/38/30
f 35/38/31 31/34/31 28/28/31
f 36/25/32 158/50/32 159/51/32 123/12/32
f 34/3/33 37/2/33 27/42/33 16/52/33
f 36/25/34 34/3/34 16/52/34 25/53/34
f 27/42/35 28/28/35 38/35/35
f 100/41/36 156/54/36 155/55/36 15/30/36
f 109/56/37 95/57/37 16/52/37 107/7/37
f 15/30/38 18/18/38 21/21/38 77/58/38
f 55/59/39 72/60/39 75/61/39
f 98/62/40 45/63/40 67/64/40
f 108/65/41 52/66/41 103/67/41 112/68/41
f 125/69/42 40/70/42 64/71/42 126/72/42
f 57/73/43 136/74/43 137/75/43 71/76/43
f 57/73/44 58/77/44 55/59/44
f 81/78/45 147/79/45 59/80/45 60/81/45
f 56/82/46 83/83/46 61/84/46 43/85/46
f 72/60/47 133/86/47 134/87/47 74/88/47
f 92/89/48 97/90/48 66/91/48
f 53/92/49 56/82/49 68/93/49
f 69/94/50 97/90/50 48/95/50 49/96/50
f 69/94/51 71/76/51 55/59/51
f 101/97/52 76/98/52 67/64/52
f 70/99/53 140/100/53 138/101/53 43/85/53
f 93/102/54 92/89/54 66/91/54
f 55/59/55 73/103/55 69/94/55
f 49/96/56 50/104/56 69/94/56
f 76/98/57 68/93/57 67/64/57
f 54/105/58 68/93/58 65/106/58
f 68/93/59 70/99/59 67/64/59
f 56/82/60 70/99/60 68/93/60
f 98/62/61 70/99/61 44/107/61
f 94/108/62 46/109/62 93/102/62
f 45/63/63 94/108/63 67/64/63
f 65/106/64 66/91/64 73/103/64 75/61/64
f 50/104/65 51/110/65 71/76/65 69/94/65
f 51/110/66 39/111/66 57/73/66 71/76/66
f 76/98/67 119/112/67 117/113/67 68/93/67
f 73/103/68 55/59/68 75/61/68
f 73/103/69 66/91/69 69/94/69
f 126/72/70 124/114/70 63/115/70 74/88/70
f 72/60/71 54/105/71 65/106/71 75/61/71
f 74/88/72 63/115/72 54/105/72 72/60/72
f 65/106/73 76/98/73 66/91/73
f 53/92/74 68/93/74 54/105/74
f 96/116/75 113/117/75 114/118/75 54/105/75
f 147/79/76 150/119/76 149/120/76 53/92/76
f 22/20/77 60/81/77 59/80/77 21/21/77
f 95/57/78 96/116/78 54/105/78 16/52/78
f 11/32/79 49/96/79 48/95/79 10/33/79
f 12/45/80 50/104/80 49/96/80 11/32/80
f 17/1/81 55/59/81 58/77/81 20/17/81
f 14/10/82 52/66/82 42/121/82 4/122/82
f 3/123/83 41/124/83 64/71/83 26/13/83
f 13/46/84 51/110/84 50/104/84 12/45/84
f 20/17/85 58/77/85 57/73/85 19/16/85
f 6/4/86 141/125/86 142/126/86 5/23/86
f 121/127/87 124/114/87 41/124/87 3/123/87
f 80/19/88 81/78/88 60/81/88 22/20/88
f 7/6/89 45/63/89 44/107/89 6/4/89
f 19/16/90 57/73/90 39/111/90 1/47/90
f 5/23/91 43/85/91 61/84/91 23/24/91
f 8/44/92 46/109/92 45/63/92 7/6/92
f 1/47/93 39/111/93 51/110/93 13/46/93
f 18/18/94 86/128/94 87/129/94 56/82/94
f 9/130/95 47/131/95 46/109/95 8/44/95
f 24/26/96 62/132/96 55/59/96 17/1/96
f 26/13/97 64/71/97 40/70/97 2/14/97
f 122/11/98 127/133/98 128/134/98 24/26/98
f 10/33/99 48/95/99 47/131/99 9/130/99
f 77/58/100 78/135/100 53/92/100 15/30/100
f 14/10/101 105/136/101 52/66/101
f 16/52/102 54/105/102 63/115/102 25/53/102
f 77/58/103 79/137/103 78/135/103
f 21/21/104 79/137/104 77/58/104
f 59/80/105 79/137/105 21/21/105
f 78/135/106 79/137/106 59/80/106
f 56/82/107 82/138/107 18/18/107
f 80/19/108 82/138/108 81/78/108
f 18/18/109 82/138/109 80/19/109
f 81/78/110 82/138/110 56/82/110
f 23/24/111 61/84/111 83/83/111 84/139/111
f 85/140/112 87/129/112 86/128/112
f 83/83/113 85/140/113 84/139/113
f 84/139/114 85/140/114 86/128/114 18/18/114
f 56/82/115 87/129/115 85/140/115 83/83/115
f 29/5/116 28/28/116 90/37/116 91/43/116
f 8/44/117 90/37/117 89/27/117 9/130/117
f 9/130/118 89/27/118 88/29/118 10/33/118
f 28/28/119 31/34/119 11/32/119 88/29/119
f 29/5/120 91/43/120 7/6/120
f 101/97/121 93/102/121 66/91/121
f 46/109/122 47/131/122 92/89/122 93/102/122
f 47/131/123 48/95/123 92/89/123
f 46/109/124 94/108/124 45/63/124
f 109/56/125 110/141/125 96/116/125 95/57/125
f 48/95/126 97/90/126 92/89/126
f 66/91/127 97/90/127 69/94/127
f 98/62/128 144/142/128 146/143/128 70/99/128
f 44/107/129 45/63/129 98/62/129
f 44/107/130 70/99/130 43/85/130
f 18/18/131 99/22/131 23/24/131 84/139/131
f 5/23/132 99/22/132 6/4/132
f 100/41/133 153/144/133 151/145/133 27/42/133
f 16/52/134 100/41/134 15/30/134
f 67/64/135 94/108/135 93/102/135 101/97/135
f 66/91/136 76/98/136 101/97/136
f 111/8/137 112/68/137 103/67/137 102/9/137
f 104/146/138 106/147/138 105/136/138
f 102/9/139 104/146/139 105/136/139 14/10/139
f 52/66/140 105/136/140 106/147/140 103/67/140
f 103/67/141 106/147/141 104/146/141 102/9/141
f 15/30/142 53/92/142 112/68/142 111/8/142
f 4/122/143 42/121/143 110/141/143 109/56/143
f 42/121/144 52/66/144 108/65/144 110/141/144
f 54/105/41 108/65/41 112/68/41 53/92/41
f 4/122/145 109/56/145 107/7/145 14/10/145
f 16/52/146 15/30/146 111/8/146 107/7/146
f 115/148/147 116/149/147 114/118/147 113/117/147
f 108/65/148 116/149/148 115/148/148 110/141/148
f 54/105/149 114/118/149 116/149/149 108/65/149
f 110/141/150 115/148/150 113/117/150 96/116/150
f 118/150/151 117/113/151 119/112/151
f 65/106/152 118/150/152 119/112/152 76/98/152
f 117/113/153 120/151/153 68/93/153
f 118/150/154 120/151/154 117/113/154
f 68/93/155 120/151/155 65/106/155
f 65/106/156 120/151/156 118/150/156
f 2/14/157 40/70/157 125/69/157 122/11/157
f 25/53/158 63/115/158 124/114/158 121/127/158
f 64/71/159 41/124/159 124/114/159 126/72/159
f 62/132/160 125/69/160 126/72/160 74/88/160
f 26/13/161 123/12/161 121/127/161 3/123/161
f 24/26/162 36/25/162 123/12/162 122/11/162
f 127/133/163 129/152/163 130/153/163 128/134/163
f 24/26/164 128/134/164 130/153/164 62/132/164
f 62/132/165 130/153/165 129/152/165 125/69/165
f 125/69/166 129/152/166 127/133/166 122/11/166
f 132/154/167 131/155/167 134/87/167 133/86/167
f 62/132/168 131/155/168 132/154/168 55/59/168
f 55/59/169 132/154/169 133/86/169 72/60/169
f 74/88/170 134/87/170 131/155/170 62/132/170
f 137/75/171 136/74/171 135/156/171
f 71/76/172 137/75/172 135/156/172 55/59/172
f 55/59/173 135/156/173 136/74/173 57/73/173
f 138/101/174 140/100/174 139/157/174
f 56/82/175 139/157/175 140/100/175 70/99/175
f 43/85/176 138/101/176 139/157/176 56/82/176
f 141/125/177 143/158/177 142/126/177
f 43/85/178 142/126/178 143/158/178 44/107/178
f 44/107/179 143/158/179 141/125/179 6/4/179
f 5/23/180 142/126/180 43/85/180
f 145/159/181 146/143/181 144/142/181
f 70/99/182 146/143/182 145/159/182 67/64/182
f 67/64/183 145/159/183 144/142/183 98/62/183
f 56/82/184 147/79/184 81/78/184
f 78/135/185 59/80/185 147/79/185 53/92/185
f 149/120/186 150/119/186 148/160/186
f 56/82/187 148/160/187 150/119/187 147/79/187
f 53/92/188 149/120/188 148/160/188 56/82/188
f 152/161/189 151/145/189 153/144/189
f 16/52/190 152/161/190 153/144/190 100/41/190
f 27/42/191 151/145/191 152/161/191 16/52/191
f 155/55/192 156/54/192 154/162/192
f 30/31/193 154/162/193 156/54/193 100/41/193
f 15/30/194 155/55/194 154/162/194 30/31/194
f 159/51/195 158/50/195 157/163/195 160/164/195
f 121/127/196 160/164/196 157/163/196 25/53/196
f 25/53/197 157/163/197 158/50/197 36/25/197
f 123/12/198 159/51/198 160/164/198 121/127/198
f 163/49/199 161/48/199 162/165/199
f 35/38/200 163/49/200 162/165/200 17/1/200
f 17/1/201 162/165/201 161/48/201 37/2/201
f 165/40/202 166/39/202 164/166/202
f 12/45/203 164/166/203 166/39/203 31/34/203
f 11/32/204 165/40/204 164/166/204 12/45/204
