# Blender v2.83.4 OBJ File: 'Shields.blend'
# www.blender.org
mtllib HalfMoon.mtl
o HalfMoon_Circle.002
v 0.308093 0.249321 -0.041244
v 0.216102 0.336935 -0.042603
v 0.017366 0.400039 -0.047956
v -0.011905 0.229944 -0.015731
v 0.362944 -0.169076 -0.035530
v 0.400041 -0.017305 -0.037182
v 0.376235 0.137101 -0.039655
v 0.099773 0.379908 -0.045023
v 0.071757 0.162722 -0.004564
v 0.009005 0.351455 -0.038208
v 0.091006 0.331697 -0.034923
v 0.189561 0.294231 -0.033004
v 0.263419 0.222063 -0.031009
v 0.325880 0.126707 -0.029520
v 0.334415 -0.017237 -0.024304
v 0.317961 -0.137939 -0.025240
v 0.211603 -0.007906 -0.003705
v 0.217186 0.353913 -0.009104
v 0.316554 0.259274 -0.007273
v 0.091529 0.400333 -0.012367
v -0.006517 0.369598 -0.005646
v 0.002515 0.422077 -0.016169
v -0.029104 0.238344 0.018922
v 0.375803 -0.192671 -0.003081
v 0.415875 -0.028730 -0.003680
v 0.390160 0.138056 -0.005662
v 0.113983 0.250217 0.036535
v 0.090284 0.331975 0.002267
v 0.188839 0.294508 0.004165
v 0.262697 0.222341 0.006194
v 0.325159 0.126984 0.007670
v 0.333694 -0.016960 0.012885
v 0.317239 -0.137662 0.011922
v 0.162679 0.051183 0.037834
v 0.214784 0.337412 0.026864
v 0.306775 0.249797 0.028295
v 0.098455 0.380385 0.024491
v 0.007687 0.351932 0.038207
v 0.016048 0.400515 0.021539
v -0.013223 0.230421 0.064933
v 0.375160 -0.192456 0.031858
v 0.398723 -0.016828 0.032323
v 0.374918 0.137578 0.029878
v 0.057635 0.170982 0.075965
v 0.078817 0.356932 0.036964
v 0.187272 0.315701 0.032412
v 0.268549 0.236284 0.035274
v 0.337285 0.131350 0.037082
v 0.346677 -0.027054 0.042319
v 0.328570 -0.159880 0.040213
v 0.238944 -0.041998 0.029138
v 0.235597 -0.005134 0.060682
v 0.191331 0.020575 0.054238
v 0.148083 0.047991 0.080628
v -0.275037 -0.285371 -0.041244
v -0.354365 -0.186145 -0.042603
v -0.400041 0.017305 -0.047956
v -0.228053 0.031752 -0.015731
v -0.094207 0.102742 -0.002593
v 0.270593 -0.295106 -0.034950
v 0.137045 -0.376210 -0.035530
v -0.017366 -0.400039 -0.037182
v -0.169133 -0.362965 -0.039655
v -0.035264 0.038458 0.007677
v -0.387115 -0.066535 -0.045023
v -0.168319 -0.057411 -0.004564
v -0.350917 0.021431 -0.038208
v -0.338326 -0.061971 -0.034923
v 0.233336 -0.254475 -0.024884
v -0.309526 -0.163398 -0.033004
v -0.244018 -0.243222 -0.031009
v -0.154422 -0.313698 -0.029520
v -0.011756 -0.334653 -0.024304
v 0.109917 -0.328702 -0.025240
v 0.098332 -0.107240 0.004865
v -0.010429 -0.211494 -0.003705
v -0.371374 -0.185757 -0.009104
v -0.285685 -0.292939 -0.007273
v -0.406750 -0.056556 -0.012367
v -0.367649 0.038464 -0.005646
v -0.420713 0.034007 -0.016169
v -0.104180 0.113618 0.031984
v -0.234933 0.049612 0.018922
v 0.159440 -0.391062 -0.003081
v 0.270125 -0.294596 0.002143
v -0.007352 -0.416801 -0.003680
v -0.171289 -0.376755 -0.005662
v 0.232868 -0.253964 0.012261
v -0.259139 -0.091911 0.036535
v -0.338541 -0.061228 0.002267
v 0.001638 -0.001787 0.048164
v -0.309740 -0.162655 0.004165
v -0.244232 -0.242479 0.006194
v -0.154636 -0.312955 0.007670
v -0.011970 -0.333910 0.012885
v 0.109703 -0.327959 0.011922
v -0.065064 -0.157642 0.037834
v -0.354727 -0.184791 0.026864
v -0.275399 -0.284017 0.028295
v -0.387476 -0.065181 0.024491
v -0.351278 0.022785 0.038207
v -0.400402 0.018659 0.021539
v -0.095047 0.103657 0.078047
v -0.228414 0.033106 0.064933
v 0.159281 -0.390402 0.031858
v 0.289470 -0.315694 0.031069
v -0.017727 -0.398684 0.032323
v -0.169494 -0.361611 0.029878
v 0.251059 -0.273804 0.039021
v -0.044521 0.048554 0.087745
v -0.175327 -0.042628 0.075965
v -0.362412 -0.047645 0.036964
v -0.330718 -0.159260 0.032412
v -0.258629 -0.247103 0.035274
v -0.160034 -0.324658 0.037082
v -0.003037 -0.347718 0.042319
v 0.130858 -0.341169 0.040213
v 0.105521 -0.115081 0.041042
v 0.021171 -0.241681 0.029137
v 0.147012 -0.160330 0.069302
v -0.015265 -0.235158 0.060682
v -0.037049 -0.188834 0.054238
v 0.029972 -0.032687 0.064568
v 0.058056 -0.063316 0.092408
v -0.060621 -0.143377 0.080628
vt 0.000000 0.000000
vt 0.000000 0.000000
vt 0.000000 0.000000
vt 0.000000 0.000000
vt 0.000000 0.000000
vt 0.000000 0.000000
vt 0.000000 0.000000
vt 0.000000 0.000000
vt 0.000000 0.000000
vt 0.000000 0.000000
vt 0.000000 0.000000
vt 0.000000 0.000000
vt 0.000000 0.000000
vt 0.000000 0.000000
vt 0.000000 0.000000
vt 0.000000 0.000000
vt 0.000000 0.000000
vt 0.000000 0.000000
vt 0.000000 0.000000
vt 0.000000 0.000000
vt 0.000000 0.000000
vt 0.000000 0.000000
vt 0.000000 0.000000
vt 0.000000 0.000000
vt 0.000000 0.000000
vt 0.000000 0.000000
vt 0.000000 0.000000
vt 0.000000 0.000000
vt 0.000000 0.000000
vt 0.000000 0.000000
vt 0.000000 0.000000
vt 0.000000 0.000000
vt 0.000000 0.000000
vt 0.000000 0.000000
vt 0.000000 0.000000
vt 0.000000 0.000000
vt 0.000000 0.000000
vt 0.000000 0.000000
vt 0.000000 0.000000
vt 0.000000 0.000000
vt 0.000000 0.000000
vt 0.000000 0.000000
vt 0.000000 0.000000
vt 0.000000 0.000000
vt 0.000000 0.000000
vt 0.000000 0.000000
vt 0.000000 0.000000
vt 0.000000 0.000000
vt 0.000000 0.000000
vt 0.000000 0.000000
vt 0.000000 0.000000
vt 0.000000 0.000000
vt 0.000000 0.000000
vt 0.000000 0.000000
vt 0.000000 0.000000
vt 0.000000 0.000000
vt 0.000000 0.000000
vt 0.000000 0.000000
vt 0.000000 0.000000
vt 0.000000 0.000000
vt 0.000000 0.000000
vt 0.000000 0.000000
vt 0.000000 0.000000
vt 0.000000 0.000000
vt 0.000000 0.000000
vt 0.000000 0.000000
vt 0.000000 0.000000
vt 0.000000 0.000000
vt 0.000000 0.000000
vt 0.000000 0.000000
vt 0.000000 0.000000
vt 0.000000 0.000000
vt 0.000000 0.000000
vt 0.000000 0.000000
vt 0.000000 0.000000
vt 0.000000 0.000000
vt 0.000000 0.000000
vt 0.000000 0.000000
vt 0.000000 0.000000
vt 0.000000 0.000000
vt 0.000000 0.000000
vt 0.000000 0.000000
vt 0.000000 0.000000
vt 0.000000 0.000000
vt 0.000000 0.000000
vt 0.000000 0.000000
vt 0.000000 0.000000
vt 0.000000 0.000000
vt 0.000000 0.000000
vt 0.000000 0.000000
vt 0.000000 0.000000
vt 0.000000 0.000000
vt 0.000000 0.000000
vt 0.000000 0.000000
vt 0.000000 0.000000
vt 0.000000 0.000000
vt 0.000000 0.000000
vt 0.000000 0.000000
vt 0.000000 0.000000
vt 0.000000 0.000000
vt 0.000000 0.000000
vt 0.000000 0.000000
vt 0.000000 0.000000
vt 0.000000 0.000000
vt 0.000000 0.000000
vt 0.000000 0.000000
vt 0.000000 0.000000
vt 0.000000 0.000000
vt 0.000000 0.000000
vt 0.000000 0.000000
vt 0.000000 0.000000
vt 0.000000 0.000000
vt 0.000000 0.000000
vt 0.000000 0.000000
vt 0.000000 0.000000
vt 0.000000 0.000000
vt 0.000000 0.000000
vt 0.000000 0.000000
vt 0.000000 0.000000
vt 0.000000 0.000000
vt 0.000000 0.000000
vt 0.000000 0.000000
vt 0.000000 0.000000
vt 0.000000 0.000000
vt 0.000000 0.000000
vn -0.1507 0.1061 -0.9829
vn -0.0076 -0.1779 -0.9840
vn -0.0112 -0.1990 -0.9799
vn -0.0535 -0.0401 -0.9978
vn 0.0335 -0.1253 -0.9916
vn -0.1252 -0.1506 -0.9806
vn -0.1952 0.0358 -0.9801
vn -0.1253 0.0739 -0.9894
vn -0.1662 -0.0110 -0.9860
vn -0.0721 -0.1487 -0.9863
vn -0.1103 -0.0926 -0.9896
vn -0.1635 -0.1174 -0.9795
vn -0.1905 -0.0459 -0.9806
vn -0.0521 -0.1921 -0.9800
vn 0.7987 0.4898 0.3496
vn 0.6409 0.2082 0.7388
vn -0.6161 0.4307 0.6595
vn 0.9098 0.1456 0.3887
vn -0.9014 0.2296 0.3671
vn -0.8904 0.1161 0.4400
vn 0.9470 -0.1774 0.2678
vn -0.9204 -0.0411 0.3887
vn 0.6948 -0.5984 -0.3991
vn -0.8874 0.0611 -0.4570
vn 0.2261 0.8487 -0.4782
vn -0.7845 0.4451 -0.4318
vn 0.7076 -0.6232 -0.3330
vn 0.8503 -0.2113 -0.4821
vn -0.8864 0.0673 -0.4580
vn 0.9142 0.1356 -0.3820
vn 0.8050 0.4841 -0.3429
vn 0.6466 0.6726 -0.3600
vn 0.3203 0.8391 -0.4397
vn 0.1139 -0.0867 0.9897
vn 0.0121 0.2075 0.9782
vn 0.0257 0.3663 0.9302
vn -0.0447 0.1319 0.9903
vn 0.1118 0.1412 0.9836
vn 0.1758 -0.0319 0.9839
vn 0.1542 0.1125 0.9816
vn 0.1805 0.0433 0.9826
vn 0.1095 0.2676 0.9573
vn 0.6413 0.6797 0.3560
vn 0.3075 0.8584 0.4105
vn -0.2968 -0.7984 0.5239
vn -0.8679 0.2628 0.4215
vn -0.6355 -0.6362 0.4375
vn 0.1975 0.8786 0.4349
vn -0.7896 0.5256 0.3166
vn -0.7720 -0.4992 0.3935
vn -0.0927 0.1593 -0.9829
vn 0.1779 -0.0078 -0.9840
vn 0.1992 -0.0061 -0.9799
vn 0.0446 0.0499 -0.9978
vn 0.1219 -0.0442 -0.9916
vn 0.1608 0.1117 -0.9806
vn -0.0188 0.1976 -0.9801
vn -0.0628 0.1312 -0.9894
vn 0.0253 0.1646 -0.9860
vn 0.1543 0.0590 -0.9863
vn 0.1018 0.1019 -0.9896
vn 0.1311 0.1527 -0.9795
vn 0.0622 0.1858 -0.9806
vn 0.1959 0.0353 -0.9800
vn -0.5570 -0.7533 0.3496
vn -0.2629 -0.6205 0.7388
vn -0.3758 0.6510 0.6595
vn -0.2238 -0.8938 0.3887
vn -0.1508 0.9179 0.3671
vn -0.0386 0.8972 0.4400
vn 0.0948 -0.9588 0.2678
vn 0.1206 0.9134 0.3888
vn 0.5360 -0.7439 -0.3991
vn 0.0159 0.8893 -0.4570
vn -0.8650 -0.1518 -0.4782
vn -0.3756 0.8200 -0.4318
vn 0.5597 -0.7589 -0.3330
vn 0.1369 -0.8654 -0.4821
vn 0.0096 0.8889 -0.4580
vn -0.2142 -0.8990 -0.3820
vn -0.5520 -0.7601 -0.3429
vn -0.7260 -0.5860 -0.3600
vn -0.8636 -0.2465 -0.4397
vn 0.0765 -0.1210 0.9897
vn -0.2077 0.0059 0.9782
vn -0.3671 0.0060 0.9302
vn -0.1275 0.0559 0.9903
vn -0.1504 -0.0991 0.9836
vn 0.0166 -0.1779 0.9839
vn -0.1255 -0.1439 0.9816
vn -0.0587 -0.1761 0.9826
vn -0.2761 -0.0860 0.9573
vn -0.7326 -0.5801 0.3560
vn -0.8818 -0.2321 0.4105
vn 0.8211 0.2266 0.5239
vn -0.1867 0.8874 0.4215
vn 0.6888 0.5781 0.4375
vn -0.8924 -0.1207 0.4349
vn -0.4553 0.8321 0.3166
vn 0.5641 0.7259 0.3935
vn 0.0786 -0.0078 0.9969
vn 0.1610 0.0431 0.9860
vn 0.1959 0.3410 0.9195
vn 0.1789 0.0768 0.9809
vn 0.1272 -0.0823 0.9885
vn 0.1772 -0.0320 0.9837
vn 0.0010 -0.0790 0.9969
vn -0.0569 -0.1567 0.9860
vn -0.3566 -0.1656 0.9195
vn -0.0920 -0.1716 0.9809
vn 0.0710 -0.1338 0.9885
vn 0.0166 -0.1793 0.9837
vn 0.0370 0.0700 0.9969
vn 0.3243 0.0363 -0.9453
vn -0.0080 -0.0810 -0.9967
vn 0.1929 -0.0543 0.9797
vn 0.0777 -0.4122 -0.9078
vn 0.3293 0.2538 0.9095
vn -0.0730 -0.0308 0.9969
vn -0.0643 -0.3199 -0.9453
vn 0.0814 0.0009 -0.9967
vn 0.0374 -0.1968 0.9797
vn 0.4040 -0.1130 -0.9078
vn -0.2814 -0.3061 0.9095
usemtl Metal
s off
f 16/1/1 5/2/1 60/3/1 69/4/1
f 10/5/2 11/6/2 9/7/2 4/8/2
f 8/9/3 11/6/3 10/5/3 3/10/3
f 9/7/4 17/11/4 75/12/4 64/13/4
f 4/8/5 9/7/5 64/13/5 59/14/5
f 2/15/6 1/16/6 13/17/6 12/18/6
f 15/19/7 6/20/7 5/2/7 16/1/7
f 75/12/8 17/11/8 16/1/8 69/4/8
f 14/21/9 15/19/9 16/1/9 17/11/9
f 12/18/10 13/17/10 9/7/10 11/6/10
f 13/17/11 14/21/11 17/11/11 9/7/11
f 13/17/12 1/16/12 7/22/12 14/21/12
f 14/21/13 7/22/13 6/20/13 15/19/13
f 8/9/14 2/15/14 12/18/14 11/6/14
f 19/23/15 36/24/15 43/25/15 26/26/15
f 28/27/16 45/28/16 44/29/16 27/30/16
f 88/31/17 109/32/17 50/33/17 33/34/17
f 26/26/18 43/25/18 42/35/18 25/36/18
f 23/37/19 40/38/19 38/39/19 21/40/19
f 33/34/20 50/33/20 49/41/20 32/42/20
f 25/36/21 42/35/21 41/43/21 24/44/21
f 32/42/22 49/41/22 48/45/22 31/46/22
f 24/44/23 41/43/23 106/47/23 85/48/23
f 10/5/24 21/40/24 22/49/24 3/10/24
f 3/10/25 22/49/25 20/50/25 8/9/25
f 59/14/26 82/51/26 23/37/26 4/8/26
f 5/2/27 24/44/27 85/48/27 60/3/27
f 6/20/28 25/36/28 24/44/28 5/2/28
f 4/8/29 23/37/29 21/40/29 10/5/29
f 7/22/30 26/26/30 25/36/30 6/20/30
f 1/16/31 19/23/31 26/26/31 7/22/31
f 2/15/32 18/52/32 19/23/32 1/16/32
f 8/9/33 20/50/33 18/52/33 2/15/33
f 50/33/34 109/32/34 106/47/34 41/43/34
f 38/39/35 40/38/35 44/29/35 45/28/35
f 37/53/36 39/54/36 38/39/36 45/28/36
f 40/38/37 103/55/37 110/56/37 44/29/37
f 35/57/38 46/58/38 47/59/38 36/24/38
f 49/41/39 50/33/39 41/43/39 42/35/39
f 47/59/40 48/45/40 43/25/40 36/24/40
f 48/45/41 49/41/41 42/35/41 43/25/41
f 37/53/42 45/28/42 46/58/42 35/57/42
f 18/52/43 35/57/43 36/24/43 19/23/43
f 20/50/44 37/53/44 35/57/44 18/52/44
f 29/60/45 46/58/45 45/28/45 28/27/45
f 21/40/46 38/39/46 39/54/46 22/49/46
f 30/61/47 47/59/47 46/58/47 29/60/47
f 22/49/48 39/54/48 37/53/48 20/50/48
f 82/51/49 103/55/49 40/38/49 23/37/49
f 31/46/50 48/45/50 47/59/50 30/61/50
f 74/62/51 69/4/51 60/3/51 61/63/51
f 67/64/52 58/65/52 66/66/52 68/67/52
f 65/68/53 57/69/53 67/64/53 68/67/53
f 66/66/54 64/13/54 75/12/54 76/70/54
f 58/65/55 59/14/55 64/13/55 66/66/55
f 56/71/56 70/72/56 71/73/56 55/74/56
f 73/75/57 74/62/57 61/63/57 62/76/57
f 75/12/58 69/4/58 74/62/58 76/70/58
f 72/77/59 76/70/59 74/62/59 73/75/59
f 70/72/60 68/67/60 66/66/60 71/73/60
f 71/73/61 66/66/61 76/70/61 72/77/61
f 71/73/62 72/77/62 63/78/62 55/74/62
f 72/77/63 73/75/63 62/76/63 63/78/63
f 65/68/64 68/67/64 70/72/64 56/71/64
f 78/79/65 87/80/65 108/81/65 99/82/65
f 90/83/66 89/84/66 111/85/66 112/86/66
f 88/31/67 96/87/67 117/88/67 109/32/67
f 87/80/68 86/89/68 107/90/68 108/81/68
f 83/91/69 80/92/69 101/93/69 104/94/69
f 96/87/70 95/95/70 116/96/70 117/88/70
f 86/89/71 84/97/71 105/98/71 107/90/71
f 95/95/72 94/99/72 115/100/72 116/96/72
f 84/97/73 85/48/73 106/47/73 105/98/73
f 67/64/74 57/69/74 81/101/74 80/92/74
f 57/69/75 65/68/75 79/102/75 81/101/75
f 59/14/76 58/65/76 83/91/76 82/51/76
f 61/63/77 60/3/77 85/48/77 84/97/77
f 62/76/78 61/63/78 84/97/78 86/89/78
f 58/65/79 67/64/79 80/92/79 83/91/79
f 63/78/80 62/76/80 86/89/80 87/80/80
f 55/74/81 63/78/81 87/80/81 78/79/81
f 56/71/82 55/74/82 78/79/82 77/103/82
f 65/68/83 56/71/83 77/103/83 79/102/83
f 117/88/84 105/98/84 106/47/84 109/32/84
f 101/93/85 112/86/85 111/85/85 104/94/85
f 100/104/86 112/86/86 101/93/86 102/105/86
f 104/94/87 111/85/87 110/56/87 103/55/87
f 98/106/88 99/82/88 114/107/88 113/108/88
f 116/96/89 107/90/89 105/98/89 117/88/89
f 114/107/90 99/82/90 108/81/90 115/100/90
f 115/100/91 108/81/91 107/90/91 116/96/91
f 100/104/92 98/106/92 113/108/92 112/86/92
f 77/103/93 78/79/93 99/82/93 98/106/93
f 79/102/94 77/103/94 98/106/94 100/104/94
f 92/109/95 90/83/95 112/86/95 113/108/95
f 80/92/96 81/101/96 102/105/96 101/93/96
f 93/110/97 92/109/97 113/108/97 114/107/97
f 81/101/98 79/102/98 100/104/98 102/105/98
f 82/51/99 83/91/99 104/94/99 103/55/99
f 94/99/100 93/110/100 114/107/100 115/100/100
usemtl Wood
f 91/111/101 118/112/101 51/113/101 34/114/101
f 31/46/102 34/114/102 51/113/102 32/42/102
f 29/60/103 28/27/103 27/30/103 30/61/103
f 30/61/104 27/30/104 34/114/104 31/46/104
f 118/112/105 88/31/105 33/34/105 51/113/105
f 51/113/106 33/34/106 32/42/106
f 91/111/107 97/115/107 119/116/107 118/112/107
f 94/99/108 95/95/108 119/116/108 97/115/108
f 92/109/109 93/110/109 89/84/109 90/83/109
f 93/110/110 94/99/110 97/115/110 89/84/110
f 118/112/111 119/116/111 96/87/111 88/31/111
f 119/116/112 95/95/112 96/87/112
usemtl Orange
f 110/56/113 124/117/113 54/118/113 44/29/113
f 27/30/114 52/119/114 53/120/114 34/114/114
f 52/119/115 120/121/115 123/122/115 53/120/115
f 52/119/116 54/118/116 124/117/116 120/121/116
f 34/114/117 53/120/117 123/122/117 91/111/117
f 44/29/118 54/118/118 52/119/118 27/30/118
f 110/56/119 111/85/119 125/123/119 124/117/119
f 89/84/120 97/115/120 122/124/120 121/125/120
f 121/125/121 122/124/121 123/122/121 120/121/121
f 121/125/122 120/121/122 124/117/122 125/123/122
f 97/115/123 91/111/123 123/122/123 122/124/123
f 111/85/124 89/84/124 121/125/124 125/123/124
